<?xml version="1.0" encoding="utf-8" standalone="no"?>
<!DOCTYPE svg PUBLIC "-//W3C//DTD SVG 1.1//EN"
  "http://www.w3.org/Graphics/SVG/1.1/DTD/svg11.dtd">
<svg xmlns:xlink="http://www.w3.org/1999/xlink" width="864pt" height="288pt" viewBox="0 0 864 288" xmlns="http://www.w3.org/2000/svg" version="1.1">
 <metadata>
  <rdf:RDF xmlns:dc="http://purl.org/dc/elements/1.1/" xmlns:cc="http://creativecommons.org/ns#" xmlns:rdf="http://www.w3.org/1999/02/22-rdf-syntax-ns#">
   <cc:Work>
    <dc:type rdf:resource="http://purl.org/dc/dcmitype/StillImage"/>
    <dc:date>2024-09-17T15:48:16.270417</dc:date>
    <dc:format>image/svg+xml</dc:format>
    <dc:creator>
     <cc:Agent>
      <dc:title>Matplotlib v3.8.0, https://matplotlib.org/</dc:title>
     </cc:Agent>
    </dc:creator>
   </cc:Work>
  </rdf:RDF>
 </metadata>
 <defs>
  <style type="text/css">*{stroke-linejoin: round; stroke-linecap: butt}</style>
 </defs>
 <g id="figure_1">
  <g id="patch_1">
   <path d="M 0 288 
L 864 288 
L 864 0 
L 0 0 
z
" style="fill: #ffffff"/>
  </g>
  <g id="axes_1">
   <g id="patch_2">
    <path d="M 47.81 246.04 
L 284.4 246.04 
L 284.4 25.44 
L 47.81 25.44 
z
" style="fill: #ffffff"/>
   </g>
   <g id="matplotlib.axis_1">
    <g id="xtick_1">
     <g id="line2d_1">
      <defs>
       <path id="m2299844e9e" d="M 0 0 
L 0 3.5 
" style="stroke: #000000; stroke-width: 0.8"/>
      </defs>
      <g>
       <use xlink:href="#m2299844e9e" x="67.37998" y="246.04" style="stroke: #000000; stroke-width: 0.8"/>
      </g>
     </g>
     <g id="text_1">
      <!-- 99.00 -->
      <g transform="translate(53.065918 260.638438) scale(0.1 -0.1)">
       <defs>
        <path id="DejaVuSans-39" d="M 703 97 
L 703 672 
Q 941 559 1184 500 
Q 1428 441 1663 441 
Q 2288 441 2617 861 
Q 2947 1281 2994 2138 
Q 2813 1869 2534 1725 
Q 2256 1581 1919 1581 
Q 1219 1581 811 2004 
Q 403 2428 403 3163 
Q 403 3881 828 4315 
Q 1253 4750 1959 4750 
Q 2769 4750 3195 4129 
Q 3622 3509 3622 2328 
Q 3622 1225 3098 567 
Q 2575 -91 1691 -91 
Q 1453 -91 1209 -44 
Q 966 3 703 97 
z
M 1959 2075 
Q 2384 2075 2632 2365 
Q 2881 2656 2881 3163 
Q 2881 3666 2632 3958 
Q 2384 4250 1959 4250 
Q 1534 4250 1286 3958 
Q 1038 3666 1038 3163 
Q 1038 2656 1286 2365 
Q 1534 2075 1959 2075 
z
" transform="scale(0.015625)"/>
        <path id="DejaVuSans-2e" d="M 684 794 
L 1344 794 
L 1344 0 
L 684 0 
L 684 794 
z
" transform="scale(0.015625)"/>
        <path id="DejaVuSans-30" d="M 2034 4250 
Q 1547 4250 1301 3770 
Q 1056 3291 1056 2328 
Q 1056 1369 1301 889 
Q 1547 409 2034 409 
Q 2525 409 2770 889 
Q 3016 1369 3016 2328 
Q 3016 3291 2770 3770 
Q 2525 4250 2034 4250 
z
M 2034 4750 
Q 2819 4750 3233 4129 
Q 3647 3509 3647 2328 
Q 3647 1150 3233 529 
Q 2819 -91 2034 -91 
Q 1250 -91 836 529 
Q 422 1150 422 2328 
Q 422 3509 836 4129 
Q 1250 4750 2034 4750 
z
" transform="scale(0.015625)"/>
       </defs>
       <use xlink:href="#DejaVuSans-39"/>
       <use xlink:href="#DejaVuSans-39" x="63.623047"/>
       <use xlink:href="#DejaVuSans-2e" x="127.246094"/>
       <use xlink:href="#DejaVuSans-30" x="159.033203"/>
       <use xlink:href="#DejaVuSans-30" x="222.65625"/>
      </g>
     </g>
    </g>
    <g id="xtick_2">
     <g id="line2d_2">
      <g>
       <use xlink:href="#m2299844e9e" x="105.787448" y="246.04" style="stroke: #000000; stroke-width: 0.8"/>
      </g>
     </g>
     <g id="text_2">
      <!-- 99.25 -->
      <g transform="translate(91.473385 260.638438) scale(0.1 -0.1)">
       <defs>
        <path id="DejaVuSans-32" d="M 1228 531 
L 3431 531 
L 3431 0 
L 469 0 
L 469 531 
Q 828 903 1448 1529 
Q 2069 2156 2228 2338 
Q 2531 2678 2651 2914 
Q 2772 3150 2772 3378 
Q 2772 3750 2511 3984 
Q 2250 4219 1831 4219 
Q 1534 4219 1204 4116 
Q 875 4013 500 3803 
L 500 4441 
Q 881 4594 1212 4672 
Q 1544 4750 1819 4750 
Q 2544 4750 2975 4387 
Q 3406 4025 3406 3419 
Q 3406 3131 3298 2873 
Q 3191 2616 2906 2266 
Q 2828 2175 2409 1742 
Q 1991 1309 1228 531 
z
" transform="scale(0.015625)"/>
        <path id="DejaVuSans-35" d="M 691 4666 
L 3169 4666 
L 3169 4134 
L 1269 4134 
L 1269 2991 
Q 1406 3038 1543 3061 
Q 1681 3084 1819 3084 
Q 2600 3084 3056 2656 
Q 3513 2228 3513 1497 
Q 3513 744 3044 326 
Q 2575 -91 1722 -91 
Q 1428 -91 1123 -41 
Q 819 9 494 109 
L 494 744 
Q 775 591 1075 516 
Q 1375 441 1709 441 
Q 2250 441 2565 725 
Q 2881 1009 2881 1497 
Q 2881 1984 2565 2268 
Q 2250 2553 1709 2553 
Q 1456 2553 1204 2497 
Q 953 2441 691 2322 
L 691 4666 
z
" transform="scale(0.015625)"/>
       </defs>
       <use xlink:href="#DejaVuSans-39"/>
       <use xlink:href="#DejaVuSans-39" x="63.623047"/>
       <use xlink:href="#DejaVuSans-2e" x="127.246094"/>
       <use xlink:href="#DejaVuSans-32" x="159.033203"/>
       <use xlink:href="#DejaVuSans-35" x="222.65625"/>
      </g>
     </g>
    </g>
    <g id="xtick_3">
     <g id="line2d_3">
      <g>
       <use xlink:href="#m2299844e9e" x="144.194915" y="246.04" style="stroke: #000000; stroke-width: 0.8"/>
      </g>
     </g>
     <g id="text_3">
      <!-- 99.50 -->
      <g transform="translate(129.880853 260.638438) scale(0.1 -0.1)">
       <use xlink:href="#DejaVuSans-39"/>
       <use xlink:href="#DejaVuSans-39" x="63.623047"/>
       <use xlink:href="#DejaVuSans-2e" x="127.246094"/>
       <use xlink:href="#DejaVuSans-35" x="159.033203"/>
       <use xlink:href="#DejaVuSans-30" x="222.65625"/>
      </g>
     </g>
    </g>
    <g id="xtick_4">
     <g id="line2d_4">
      <g>
       <use xlink:href="#m2299844e9e" x="182.602383" y="246.04" style="stroke: #000000; stroke-width: 0.8"/>
      </g>
     </g>
     <g id="text_4">
      <!-- 99.75 -->
      <g transform="translate(168.28832 260.638438) scale(0.1 -0.1)">
       <defs>
        <path id="DejaVuSans-37" d="M 525 4666 
L 3525 4666 
L 3525 4397 
L 1831 0 
L 1172 0 
L 2766 4134 
L 525 4134 
L 525 4666 
z
" transform="scale(0.015625)"/>
       </defs>
       <use xlink:href="#DejaVuSans-39"/>
       <use xlink:href="#DejaVuSans-39" x="63.623047"/>
       <use xlink:href="#DejaVuSans-2e" x="127.246094"/>
       <use xlink:href="#DejaVuSans-37" x="159.033203"/>
       <use xlink:href="#DejaVuSans-35" x="222.65625"/>
      </g>
     </g>
    </g>
    <g id="xtick_5">
     <g id="line2d_5">
      <g>
       <use xlink:href="#m2299844e9e" x="221.00985" y="246.04" style="stroke: #000000; stroke-width: 0.8"/>
      </g>
     </g>
     <g id="text_5">
      <!-- 100.00 -->
      <g transform="translate(203.514538 260.638438) scale(0.1 -0.1)">
       <defs>
        <path id="DejaVuSans-31" d="M 794 531 
L 1825 531 
L 1825 4091 
L 703 3866 
L 703 4441 
L 1819 4666 
L 2450 4666 
L 2450 531 
L 3481 531 
L 3481 0 
L 794 0 
L 794 531 
z
" transform="scale(0.015625)"/>
       </defs>
       <use xlink:href="#DejaVuSans-31"/>
       <use xlink:href="#DejaVuSans-30" x="63.623047"/>
       <use xlink:href="#DejaVuSans-30" x="127.246094"/>
       <use xlink:href="#DejaVuSans-2e" x="190.869141"/>
       <use xlink:href="#DejaVuSans-30" x="222.65625"/>
       <use xlink:href="#DejaVuSans-30" x="286.279297"/>
      </g>
     </g>
    </g>
    <g id="xtick_6">
     <g id="line2d_6">
      <g>
       <use xlink:href="#m2299844e9e" x="259.417318" y="246.04" style="stroke: #000000; stroke-width: 0.8"/>
      </g>
     </g>
     <g id="text_6">
      <!-- 100.25 -->
      <g transform="translate(241.922005 260.638438) scale(0.1 -0.1)">
       <use xlink:href="#DejaVuSans-31"/>
       <use xlink:href="#DejaVuSans-30" x="63.623047"/>
       <use xlink:href="#DejaVuSans-30" x="127.246094"/>
       <use xlink:href="#DejaVuSans-2e" x="190.869141"/>
       <use xlink:href="#DejaVuSans-32" x="222.65625"/>
       <use xlink:href="#DejaVuSans-35" x="286.279297"/>
      </g>
     </g>
    </g>
    <g id="text_7">
     <!-- X Value (kHz) -->
     <g transform="translate(132.589375 274.316562) scale(0.1 -0.1)">
      <defs>
       <path id="DejaVuSans-58" d="M 403 4666 
L 1081 4666 
L 2241 2931 
L 3406 4666 
L 4084 4666 
L 2584 2425 
L 4184 0 
L 3506 0 
L 2194 1984 
L 872 0 
L 191 0 
L 1856 2491 
L 403 4666 
z
" transform="scale(0.015625)"/>
       <path id="DejaVuSans-20" transform="scale(0.015625)"/>
       <path id="DejaVuSans-56" d="M 1831 0 
L 50 4666 
L 709 4666 
L 2188 738 
L 3669 4666 
L 4325 4666 
L 2547 0 
L 1831 0 
z
" transform="scale(0.015625)"/>
       <path id="DejaVuSans-61" d="M 2194 1759 
Q 1497 1759 1228 1600 
Q 959 1441 959 1056 
Q 959 750 1161 570 
Q 1363 391 1709 391 
Q 2188 391 2477 730 
Q 2766 1069 2766 1631 
L 2766 1759 
L 2194 1759 
z
M 3341 1997 
L 3341 0 
L 2766 0 
L 2766 531 
Q 2569 213 2275 61 
Q 1981 -91 1556 -91 
Q 1019 -91 701 211 
Q 384 513 384 1019 
Q 384 1609 779 1909 
Q 1175 2209 1959 2209 
L 2766 2209 
L 2766 2266 
Q 2766 2663 2505 2880 
Q 2244 3097 1772 3097 
Q 1472 3097 1187 3025 
Q 903 2953 641 2809 
L 641 3341 
Q 956 3463 1253 3523 
Q 1550 3584 1831 3584 
Q 2591 3584 2966 3190 
Q 3341 2797 3341 1997 
z
" transform="scale(0.015625)"/>
       <path id="DejaVuSans-6c" d="M 603 4863 
L 1178 4863 
L 1178 0 
L 603 0 
L 603 4863 
z
" transform="scale(0.015625)"/>
       <path id="DejaVuSans-75" d="M 544 1381 
L 544 3500 
L 1119 3500 
L 1119 1403 
Q 1119 906 1312 657 
Q 1506 409 1894 409 
Q 2359 409 2629 706 
Q 2900 1003 2900 1516 
L 2900 3500 
L 3475 3500 
L 3475 0 
L 2900 0 
L 2900 538 
Q 2691 219 2414 64 
Q 2138 -91 1772 -91 
Q 1169 -91 856 284 
Q 544 659 544 1381 
z
M 1991 3584 
L 1991 3584 
z
" transform="scale(0.015625)"/>
       <path id="DejaVuSans-65" d="M 3597 1894 
L 3597 1613 
L 953 1613 
Q 991 1019 1311 708 
Q 1631 397 2203 397 
Q 2534 397 2845 478 
Q 3156 559 3463 722 
L 3463 178 
Q 3153 47 2828 -22 
Q 2503 -91 2169 -91 
Q 1331 -91 842 396 
Q 353 884 353 1716 
Q 353 2575 817 3079 
Q 1281 3584 2069 3584 
Q 2775 3584 3186 3129 
Q 3597 2675 3597 1894 
z
M 3022 2063 
Q 3016 2534 2758 2815 
Q 2500 3097 2075 3097 
Q 1594 3097 1305 2825 
Q 1016 2553 972 2059 
L 3022 2063 
z
" transform="scale(0.015625)"/>
       <path id="DejaVuSans-28" d="M 1984 4856 
Q 1566 4138 1362 3434 
Q 1159 2731 1159 2009 
Q 1159 1288 1364 580 
Q 1569 -128 1984 -844 
L 1484 -844 
Q 1016 -109 783 600 
Q 550 1309 550 2009 
Q 550 2706 781 3412 
Q 1013 4119 1484 4856 
L 1984 4856 
z
" transform="scale(0.015625)"/>
       <path id="DejaVuSans-6b" d="M 581 4863 
L 1159 4863 
L 1159 1991 
L 2875 3500 
L 3609 3500 
L 1753 1863 
L 3688 0 
L 2938 0 
L 1159 1709 
L 1159 0 
L 581 0 
L 581 4863 
z
" transform="scale(0.015625)"/>
       <path id="DejaVuSans-48" d="M 628 4666 
L 1259 4666 
L 1259 2753 
L 3553 2753 
L 3553 4666 
L 4184 4666 
L 4184 0 
L 3553 0 
L 3553 2222 
L 1259 2222 
L 1259 0 
L 628 0 
L 628 4666 
z
" transform="scale(0.015625)"/>
       <path id="DejaVuSans-7a" d="M 353 3500 
L 3084 3500 
L 3084 2975 
L 922 459 
L 3084 459 
L 3084 0 
L 275 0 
L 275 525 
L 2438 3041 
L 353 3041 
L 353 3500 
z
" transform="scale(0.015625)"/>
       <path id="DejaVuSans-29" d="M 513 4856 
L 1013 4856 
Q 1481 4119 1714 3412 
Q 1947 2706 1947 2009 
Q 1947 1309 1714 600 
Q 1481 -109 1013 -844 
L 513 -844 
Q 928 -128 1133 580 
Q 1338 1288 1338 2009 
Q 1338 2731 1133 3434 
Q 928 4138 513 4856 
z
" transform="scale(0.015625)"/>
      </defs>
      <use xlink:href="#DejaVuSans-58"/>
      <use xlink:href="#DejaVuSans-20" x="68.505859"/>
      <use xlink:href="#DejaVuSans-56" x="100.292969"/>
      <use xlink:href="#DejaVuSans-61" x="160.951172"/>
      <use xlink:href="#DejaVuSans-6c" x="222.230469"/>
      <use xlink:href="#DejaVuSans-75" x="250.013672"/>
      <use xlink:href="#DejaVuSans-65" x="313.392578"/>
      <use xlink:href="#DejaVuSans-20" x="374.916016"/>
      <use xlink:href="#DejaVuSans-28" x="406.703125"/>
      <use xlink:href="#DejaVuSans-6b" x="445.716797"/>
      <use xlink:href="#DejaVuSans-48" x="503.626953"/>
      <use xlink:href="#DejaVuSans-7a" x="578.822266"/>
      <use xlink:href="#DejaVuSans-29" x="631.3125"/>
     </g>
    </g>
   </g>
   <g id="matplotlib.axis_2">
    <g id="ytick_1">
     <g id="line2d_7">
      <defs>
       <path id="maaffd2e0e9" d="M 0 0 
L -3.5 0 
" style="stroke: #000000; stroke-width: 0.8"/>
      </defs>
      <g>
       <use xlink:href="#maaffd2e0e9" x="47.81" y="236.012727" style="stroke: #000000; stroke-width: 0.8"/>
      </g>
     </g>
     <g id="text_8">
      <!-- 0.0 -->
      <g transform="translate(24.906875 239.811946) scale(0.1 -0.1)">
       <use xlink:href="#DejaVuSans-30"/>
       <use xlink:href="#DejaVuSans-2e" x="63.623047"/>
       <use xlink:href="#DejaVuSans-30" x="95.410156"/>
      </g>
     </g>
    </g>
    <g id="ytick_2">
     <g id="line2d_8">
      <g>
       <use xlink:href="#maaffd2e0e9" x="47.81" y="211.431452" style="stroke: #000000; stroke-width: 0.8"/>
      </g>
     </g>
     <g id="text_9">
      <!-- 0.5 -->
      <g transform="translate(24.906875 215.230671) scale(0.1 -0.1)">
       <use xlink:href="#DejaVuSans-30"/>
       <use xlink:href="#DejaVuSans-2e" x="63.623047"/>
       <use xlink:href="#DejaVuSans-35" x="95.410156"/>
      </g>
     </g>
    </g>
    <g id="ytick_3">
     <g id="line2d_9">
      <g>
       <use xlink:href="#maaffd2e0e9" x="47.81" y="186.850177" style="stroke: #000000; stroke-width: 0.8"/>
      </g>
     </g>
     <g id="text_10">
      <!-- 1.0 -->
      <g transform="translate(24.906875 190.649396) scale(0.1 -0.1)">
       <use xlink:href="#DejaVuSans-31"/>
       <use xlink:href="#DejaVuSans-2e" x="63.623047"/>
       <use xlink:href="#DejaVuSans-30" x="95.410156"/>
      </g>
     </g>
    </g>
    <g id="ytick_4">
     <g id="line2d_10">
      <g>
       <use xlink:href="#maaffd2e0e9" x="47.81" y="162.268902" style="stroke: #000000; stroke-width: 0.8"/>
      </g>
     </g>
     <g id="text_11">
      <!-- 1.5 -->
      <g transform="translate(24.906875 166.06812) scale(0.1 -0.1)">
       <use xlink:href="#DejaVuSans-31"/>
       <use xlink:href="#DejaVuSans-2e" x="63.623047"/>
       <use xlink:href="#DejaVuSans-35" x="95.410156"/>
      </g>
     </g>
    </g>
    <g id="ytick_5">
     <g id="line2d_11">
      <g>
       <use xlink:href="#maaffd2e0e9" x="47.81" y="137.687627" style="stroke: #000000; stroke-width: 0.8"/>
      </g>
     </g>
     <g id="text_12">
      <!-- 2.0 -->
      <g transform="translate(24.906875 141.486845) scale(0.1 -0.1)">
       <use xlink:href="#DejaVuSans-32"/>
       <use xlink:href="#DejaVuSans-2e" x="63.623047"/>
       <use xlink:href="#DejaVuSans-30" x="95.410156"/>
      </g>
     </g>
    </g>
    <g id="ytick_6">
     <g id="line2d_12">
      <g>
       <use xlink:href="#maaffd2e0e9" x="47.81" y="113.106351" style="stroke: #000000; stroke-width: 0.8"/>
      </g>
     </g>
     <g id="text_13">
      <!-- 2.5 -->
      <g transform="translate(24.906875 116.90557) scale(0.1 -0.1)">
       <use xlink:href="#DejaVuSans-32"/>
       <use xlink:href="#DejaVuSans-2e" x="63.623047"/>
       <use xlink:href="#DejaVuSans-35" x="95.410156"/>
      </g>
     </g>
    </g>
    <g id="ytick_7">
     <g id="line2d_13">
      <g>
       <use xlink:href="#maaffd2e0e9" x="47.81" y="88.525076" style="stroke: #000000; stroke-width: 0.8"/>
      </g>
     </g>
     <g id="text_14">
      <!-- 3.0 -->
      <g transform="translate(24.906875 92.324295) scale(0.1 -0.1)">
       <defs>
        <path id="DejaVuSans-33" d="M 2597 2516 
Q 3050 2419 3304 2112 
Q 3559 1806 3559 1356 
Q 3559 666 3084 287 
Q 2609 -91 1734 -91 
Q 1441 -91 1130 -33 
Q 819 25 488 141 
L 488 750 
Q 750 597 1062 519 
Q 1375 441 1716 441 
Q 2309 441 2620 675 
Q 2931 909 2931 1356 
Q 2931 1769 2642 2001 
Q 2353 2234 1838 2234 
L 1294 2234 
L 1294 2753 
L 1863 2753 
Q 2328 2753 2575 2939 
Q 2822 3125 2822 3475 
Q 2822 3834 2567 4026 
Q 2313 4219 1838 4219 
Q 1578 4219 1281 4162 
Q 984 4106 628 3988 
L 628 4550 
Q 988 4650 1302 4700 
Q 1616 4750 1894 4750 
Q 2613 4750 3031 4423 
Q 3450 4097 3450 3541 
Q 3450 3153 3228 2886 
Q 3006 2619 2597 2516 
z
" transform="scale(0.015625)"/>
       </defs>
       <use xlink:href="#DejaVuSans-33"/>
       <use xlink:href="#DejaVuSans-2e" x="63.623047"/>
       <use xlink:href="#DejaVuSans-30" x="95.410156"/>
      </g>
     </g>
    </g>
    <g id="ytick_8">
     <g id="line2d_14">
      <g>
       <use xlink:href="#maaffd2e0e9" x="47.81" y="63.943801" style="stroke: #000000; stroke-width: 0.8"/>
      </g>
     </g>
     <g id="text_15">
      <!-- 3.5 -->
      <g transform="translate(24.906875 67.74302) scale(0.1 -0.1)">
       <use xlink:href="#DejaVuSans-33"/>
       <use xlink:href="#DejaVuSans-2e" x="63.623047"/>
       <use xlink:href="#DejaVuSans-35" x="95.410156"/>
      </g>
     </g>
    </g>
    <g id="ytick_9">
     <g id="line2d_15">
      <g>
       <use xlink:href="#maaffd2e0e9" x="47.81" y="39.362526" style="stroke: #000000; stroke-width: 0.8"/>
      </g>
     </g>
     <g id="text_16">
      <!-- 4.0 -->
      <g transform="translate(24.906875 43.161745) scale(0.1 -0.1)">
       <defs>
        <path id="DejaVuSans-34" d="M 2419 4116 
L 825 1625 
L 2419 1625 
L 2419 4116 
z
M 2253 4666 
L 3047 4666 
L 3047 1625 
L 3713 1625 
L 3713 1100 
L 3047 1100 
L 3047 0 
L 2419 0 
L 2419 1100 
L 313 1100 
L 313 1709 
L 2253 4666 
z
" transform="scale(0.015625)"/>
       </defs>
       <use xlink:href="#DejaVuSans-34"/>
       <use xlink:href="#DejaVuSans-2e" x="63.623047"/>
       <use xlink:href="#DejaVuSans-30" x="95.410156"/>
      </g>
     </g>
    </g>
    <g id="text_17">
     <!-- Loss - Min Loss -->
     <g transform="translate(18.827187 173.117344) rotate(-90) scale(0.1 -0.1)">
      <defs>
       <path id="DejaVuSans-4c" d="M 628 4666 
L 1259 4666 
L 1259 531 
L 3531 531 
L 3531 0 
L 628 0 
L 628 4666 
z
" transform="scale(0.015625)"/>
       <path id="DejaVuSans-6f" d="M 1959 3097 
Q 1497 3097 1228 2736 
Q 959 2375 959 1747 
Q 959 1119 1226 758 
Q 1494 397 1959 397 
Q 2419 397 2687 759 
Q 2956 1122 2956 1747 
Q 2956 2369 2687 2733 
Q 2419 3097 1959 3097 
z
M 1959 3584 
Q 2709 3584 3137 3096 
Q 3566 2609 3566 1747 
Q 3566 888 3137 398 
Q 2709 -91 1959 -91 
Q 1206 -91 779 398 
Q 353 888 353 1747 
Q 353 2609 779 3096 
Q 1206 3584 1959 3584 
z
" transform="scale(0.015625)"/>
       <path id="DejaVuSans-73" d="M 2834 3397 
L 2834 2853 
Q 2591 2978 2328 3040 
Q 2066 3103 1784 3103 
Q 1356 3103 1142 2972 
Q 928 2841 928 2578 
Q 928 2378 1081 2264 
Q 1234 2150 1697 2047 
L 1894 2003 
Q 2506 1872 2764 1633 
Q 3022 1394 3022 966 
Q 3022 478 2636 193 
Q 2250 -91 1575 -91 
Q 1294 -91 989 -36 
Q 684 19 347 128 
L 347 722 
Q 666 556 975 473 
Q 1284 391 1588 391 
Q 1994 391 2212 530 
Q 2431 669 2431 922 
Q 2431 1156 2273 1281 
Q 2116 1406 1581 1522 
L 1381 1569 
Q 847 1681 609 1914 
Q 372 2147 372 2553 
Q 372 3047 722 3315 
Q 1072 3584 1716 3584 
Q 2034 3584 2315 3537 
Q 2597 3491 2834 3397 
z
" transform="scale(0.015625)"/>
       <path id="DejaVuSans-2d" d="M 313 2009 
L 1997 2009 
L 1997 1497 
L 313 1497 
L 313 2009 
z
" transform="scale(0.015625)"/>
       <path id="DejaVuSans-4d" d="M 628 4666 
L 1569 4666 
L 2759 1491 
L 3956 4666 
L 4897 4666 
L 4897 0 
L 4281 0 
L 4281 4097 
L 3078 897 
L 2444 897 
L 1241 4097 
L 1241 0 
L 628 0 
L 628 4666 
z
" transform="scale(0.015625)"/>
       <path id="DejaVuSans-69" d="M 603 3500 
L 1178 3500 
L 1178 0 
L 603 0 
L 603 3500 
z
M 603 4863 
L 1178 4863 
L 1178 4134 
L 603 4134 
L 603 4863 
z
" transform="scale(0.015625)"/>
       <path id="DejaVuSans-6e" d="M 3513 2113 
L 3513 0 
L 2938 0 
L 2938 2094 
Q 2938 2591 2744 2837 
Q 2550 3084 2163 3084 
Q 1697 3084 1428 2787 
Q 1159 2491 1159 1978 
L 1159 0 
L 581 0 
L 581 3500 
L 1159 3500 
L 1159 2956 
Q 1366 3272 1645 3428 
Q 1925 3584 2291 3584 
Q 2894 3584 3203 3211 
Q 3513 2838 3513 2113 
z
" transform="scale(0.015625)"/>
      </defs>
      <use xlink:href="#DejaVuSans-4c"/>
      <use xlink:href="#DejaVuSans-6f" x="53.962891"/>
      <use xlink:href="#DejaVuSans-73" x="115.144531"/>
      <use xlink:href="#DejaVuSans-73" x="167.244141"/>
      <use xlink:href="#DejaVuSans-20" x="219.34375"/>
      <use xlink:href="#DejaVuSans-2d" x="251.130859"/>
      <use xlink:href="#DejaVuSans-20" x="287.214844"/>
      <use xlink:href="#DejaVuSans-4d" x="319.001953"/>
      <use xlink:href="#DejaVuSans-69" x="405.28125"/>
      <use xlink:href="#DejaVuSans-6e" x="433.064453"/>
      <use xlink:href="#DejaVuSans-20" x="496.443359"/>
      <use xlink:href="#DejaVuSans-4c" x="528.230469"/>
      <use xlink:href="#DejaVuSans-6f" x="582.193359"/>
      <use xlink:href="#DejaVuSans-73" x="643.375"/>
      <use xlink:href="#DejaVuSans-73" x="695.474609"/>
     </g>
    </g>
   </g>
   <g id="line2d_16">
    <path d="M 58.564091 35.467273 
L 60.736635 43.548327 
L 62.909178 51.463628 
L 65.081722 59.213002 
L 67.254265 66.796282 
L 69.426809 74.213312 
L 71.599353 81.463944 
L 73.771896 88.548043 
L 75.94444 95.465483 
L 78.116983 102.216149 
L 80.289527 108.799939 
L 82.462071 115.216761 
L 84.634614 121.466538 
L 86.807158 127.549204 
L 88.979702 133.464707 
L 91.152245 139.21301 
L 93.324789 144.794087 
L 95.497332 150.20793 
L 97.669876 155.454545 
L 99.84242 160.533953 
L 102.014963 165.446192 
L 104.187507 170.191314 
L 106.360051 174.769391 
L 108.532594 179.18051 
L 110.705138 183.424776 
L 112.877681 187.502313 
L 115.050225 191.413261 
L 117.222769 195.15778 
L 119.395312 198.73605 
L 121.567856 202.148269 
L 123.740399 205.394654 
L 125.912943 208.475443 
L 128.085487 211.390894 
L 130.25803 214.141285 
L 132.430574 216.726913 
L 134.603118 219.148099 
L 136.775661 221.405182 
L 138.948205 223.498523 
L 141.120748 225.428503 
L 143.293292 227.195524 
L 145.465836 228.800009 
L 147.638379 230.242402 
L 149.810923 231.523166 
L 151.983466 232.642785 
L 154.15601 233.601763 
L 156.328554 234.400623 
L 158.501097 235.039905 
L 160.673641 235.520171 
L 162.846185 235.841998 
L 165.018728 236.00598 
L 167.191272 236.012727 
L 169.363815 235.862866 
L 171.536359 235.557036 
L 173.708903 235.095891 
L 175.881446 234.480094 
L 178.05399 233.710321 
L 180.226534 232.787258 
L 182.399077 231.711596 
L 184.571621 230.484035 
L 186.744164 229.105279 
L 188.916708 227.576036 
L 191.089252 225.897014 
L 193.261795 224.068923 
L 195.434339 222.092469 
L 197.606882 219.968354 
L 199.779426 217.697277 
L 201.95197 215.279927 
L 204.124513 212.716986 
L 206.297057 210.009123 
L 208.469601 207.156997 
L 210.642144 204.161251 
L 212.814688 201.022513 
L 214.987231 197.741394 
L 217.159775 194.318485 
L 219.332319 190.754359 
L 221.504862 187.049566 
L 223.677406 183.204636 
L 225.849949 179.220075 
L 228.022493 175.096365 
L 230.195037 170.833964 
L 232.36758 166.433307 
L 234.540124 161.894802 
L 236.712668 157.218834 
L 238.885211 152.405762 
L 241.057755 147.455922 
L 243.230298 142.369627 
L 245.402842 137.147164 
L 247.575386 131.7888 
L 249.747929 126.294781 
L 251.920473 120.665332 
L 254.093017 114.900658 
L 256.26556 109.000948 
L 258.438104 102.966375 
L 260.610647 96.797095 
L 262.783191 90.493253 
L 264.955735 84.054981 
L 267.128278 77.482402 
L 269.300822 70.775628 
L 271.473365 63.934768 
L 273.645909 56.959921 
" clip-path="url(#p183624f7c5)" style="fill: none; stroke: #1f77b4; stroke-width: 1.5; stroke-linecap: square"/>
   </g>
   <g id="line2d_17">
    <path d="M 166.105 246.04 
L 166.105 25.44 
" clip-path="url(#p183624f7c5)" style="fill: none; stroke-dasharray: 5.55,2.4; stroke-dashoffset: 0; stroke: #000000; stroke-width: 1.5"/>
   </g>
   <g id="line2d_18">
    <path d="M 221.00985 246.04 
L 221.00985 25.44 
" clip-path="url(#p183624f7c5)" style="fill: none; stroke-dasharray: 5.55,2.4; stroke-dashoffset: 0; stroke: #ff0000; stroke-width: 1.5"/>
   </g>
   <g id="line2d_19">
    <path d="M 47.81 211.431452 
L 284.4 211.431452 
" clip-path="url(#p183624f7c5)" style="fill: none; stroke: #000000; stroke-opacity: 0.5; stroke-width: 1.5; stroke-linecap: square"/>
   </g>
   <g id="line2d_20">
    <path d="M 116.108828 246.04 
L 116.108828 25.44 
" clip-path="url(#p183624f7c5)" style="fill: none; stroke-dasharray: 5.55,2.4; stroke-dashoffset: 0; stroke: #000000; stroke-opacity: 0.5; stroke-width: 1.5"/>
   </g>
   <g id="line2d_21">
    <path d="M 216.101172 246.04 
L 216.101172 25.44 
" clip-path="url(#p183624f7c5)" style="fill: none; stroke-dasharray: 5.55,2.4; stroke-dashoffset: 0; stroke: #000000; stroke-opacity: 0.5; stroke-width: 1.5"/>
   </g>
   <g id="patch_3">
    <path d="M 47.81 246.04 
L 47.81 25.44 
" style="fill: none; stroke: #000000; stroke-width: 0.8; stroke-linejoin: miter; stroke-linecap: square"/>
   </g>
   <g id="patch_4">
    <path d="M 284.4 246.04 
L 284.4 25.44 
" style="fill: none; stroke: #000000; stroke-width: 0.8; stroke-linejoin: miter; stroke-linecap: square"/>
   </g>
   <g id="patch_5">
    <path d="M 47.81 246.04 
L 284.4 246.04 
" style="fill: none; stroke: #000000; stroke-width: 0.8; stroke-linejoin: miter; stroke-linecap: square"/>
   </g>
   <g id="patch_6">
    <path d="M 47.81 25.44 
L 284.4 25.44 
" style="fill: none; stroke: #000000; stroke-width: 0.8; stroke-linejoin: miter; stroke-linecap: square"/>
   </g>
   <g id="text_18">
    <!-- Loss vs offset X -->
    <g transform="translate(119.371563 19.44) scale(0.12 -0.12)">
     <defs>
      <path id="DejaVuSans-76" d="M 191 3500 
L 800 3500 
L 1894 563 
L 2988 3500 
L 3597 3500 
L 2284 0 
L 1503 0 
L 191 3500 
z
" transform="scale(0.015625)"/>
      <path id="DejaVuSans-66" d="M 2375 4863 
L 2375 4384 
L 1825 4384 
Q 1516 4384 1395 4259 
Q 1275 4134 1275 3809 
L 1275 3500 
L 2222 3500 
L 2222 3053 
L 1275 3053 
L 1275 0 
L 697 0 
L 697 3053 
L 147 3053 
L 147 3500 
L 697 3500 
L 697 3744 
Q 697 4328 969 4595 
Q 1241 4863 1831 4863 
L 2375 4863 
z
" transform="scale(0.015625)"/>
      <path id="DejaVuSans-74" d="M 1172 4494 
L 1172 3500 
L 2356 3500 
L 2356 3053 
L 1172 3053 
L 1172 1153 
Q 1172 725 1289 603 
Q 1406 481 1766 481 
L 2356 481 
L 2356 0 
L 1766 0 
Q 1100 0 847 248 
Q 594 497 594 1153 
L 594 3053 
L 172 3053 
L 172 3500 
L 594 3500 
L 594 4494 
L 1172 4494 
z
" transform="scale(0.015625)"/>
     </defs>
     <use xlink:href="#DejaVuSans-4c"/>
     <use xlink:href="#DejaVuSans-6f" x="53.962891"/>
     <use xlink:href="#DejaVuSans-73" x="115.144531"/>
     <use xlink:href="#DejaVuSans-73" x="167.244141"/>
     <use xlink:href="#DejaVuSans-20" x="219.34375"/>
     <use xlink:href="#DejaVuSans-76" x="251.130859"/>
     <use xlink:href="#DejaVuSans-73" x="310.310547"/>
     <use xlink:href="#DejaVuSans-20" x="362.410156"/>
     <use xlink:href="#DejaVuSans-6f" x="394.197266"/>
     <use xlink:href="#DejaVuSans-66" x="455.378906"/>
     <use xlink:href="#DejaVuSans-66" x="490.583984"/>
     <use xlink:href="#DejaVuSans-73" x="525.789062"/>
     <use xlink:href="#DejaVuSans-65" x="577.888672"/>
     <use xlink:href="#DejaVuSans-74" x="639.412109"/>
     <use xlink:href="#DejaVuSans-20" x="678.621094"/>
     <use xlink:href="#DejaVuSans-58" x="710.408203"/>
    </g>
   </g>
  </g>
  <g id="axes_2">
   <g id="patch_7">
    <path d="M 332.21 246.04 
L 568.8 246.04 
L 568.8 25.44 
L 332.21 25.44 
z
" style="fill: #ffffff"/>
   </g>
   <g id="matplotlib.axis_3">
    <g id="xtick_7">
     <g id="line2d_22">
      <g>
       <use xlink:href="#m2299844e9e" x="343.955976" y="246.04" style="stroke: #000000; stroke-width: 0.8"/>
      </g>
     </g>
     <g id="text_19">
      <!-- −200.75 -->
      <g transform="translate(322.27082 260.638438) scale(0.1 -0.1)">
       <defs>
        <path id="DejaVuSans-2212" d="M 678 2272 
L 4684 2272 
L 4684 1741 
L 678 1741 
L 678 2272 
z
" transform="scale(0.015625)"/>
       </defs>
       <use xlink:href="#DejaVuSans-2212"/>
       <use xlink:href="#DejaVuSans-32" x="83.789062"/>
       <use xlink:href="#DejaVuSans-30" x="147.412109"/>
       <use xlink:href="#DejaVuSans-30" x="211.035156"/>
       <use xlink:href="#DejaVuSans-2e" x="274.658203"/>
       <use xlink:href="#DejaVuSans-37" x="306.445312"/>
       <use xlink:href="#DejaVuSans-35" x="370.068359"/>
      </g>
     </g>
    </g>
    <g id="xtick_8">
     <g id="line2d_23">
      <g>
       <use xlink:href="#m2299844e9e" x="382.363444" y="246.04" style="stroke: #000000; stroke-width: 0.8"/>
      </g>
     </g>
     <g id="text_20">
      <!-- −200.50 -->
      <g transform="translate(360.678288 260.638438) scale(0.1 -0.1)">
       <use xlink:href="#DejaVuSans-2212"/>
       <use xlink:href="#DejaVuSans-32" x="83.789062"/>
       <use xlink:href="#DejaVuSans-30" x="147.412109"/>
       <use xlink:href="#DejaVuSans-30" x="211.035156"/>
       <use xlink:href="#DejaVuSans-2e" x="274.658203"/>
       <use xlink:href="#DejaVuSans-35" x="306.445312"/>
       <use xlink:href="#DejaVuSans-30" x="370.068359"/>
      </g>
     </g>
    </g>
    <g id="xtick_9">
     <g id="line2d_24">
      <g>
       <use xlink:href="#m2299844e9e" x="420.770911" y="246.04" style="stroke: #000000; stroke-width: 0.8"/>
      </g>
     </g>
     <g id="text_21">
      <!-- −200.25 -->
      <g transform="translate(399.085755 260.638438) scale(0.1 -0.1)">
       <use xlink:href="#DejaVuSans-2212"/>
       <use xlink:href="#DejaVuSans-32" x="83.789062"/>
       <use xlink:href="#DejaVuSans-30" x="147.412109"/>
       <use xlink:href="#DejaVuSans-30" x="211.035156"/>
       <use xlink:href="#DejaVuSans-2e" x="274.658203"/>
       <use xlink:href="#DejaVuSans-32" x="306.445312"/>
       <use xlink:href="#DejaVuSans-35" x="370.068359"/>
      </g>
     </g>
    </g>
    <g id="xtick_10">
     <g id="line2d_25">
      <g>
       <use xlink:href="#m2299844e9e" x="459.178379" y="246.04" style="stroke: #000000; stroke-width: 0.8"/>
      </g>
     </g>
     <g id="text_22">
      <!-- −200.00 -->
      <g transform="translate(437.493223 260.638438) scale(0.1 -0.1)">
       <use xlink:href="#DejaVuSans-2212"/>
       <use xlink:href="#DejaVuSans-32" x="83.789062"/>
       <use xlink:href="#DejaVuSans-30" x="147.412109"/>
       <use xlink:href="#DejaVuSans-30" x="211.035156"/>
       <use xlink:href="#DejaVuSans-2e" x="274.658203"/>
       <use xlink:href="#DejaVuSans-30" x="306.445312"/>
       <use xlink:href="#DejaVuSans-30" x="370.068359"/>
      </g>
     </g>
    </g>
    <g id="xtick_11">
     <g id="line2d_26">
      <g>
       <use xlink:href="#m2299844e9e" x="497.585846" y="246.04" style="stroke: #000000; stroke-width: 0.8"/>
      </g>
     </g>
     <g id="text_23">
      <!-- −199.75 -->
      <g transform="translate(475.90069 260.638438) scale(0.1 -0.1)">
       <use xlink:href="#DejaVuSans-2212"/>
       <use xlink:href="#DejaVuSans-31" x="83.789062"/>
       <use xlink:href="#DejaVuSans-39" x="147.412109"/>
       <use xlink:href="#DejaVuSans-39" x="211.035156"/>
       <use xlink:href="#DejaVuSans-2e" x="274.658203"/>
       <use xlink:href="#DejaVuSans-37" x="306.445312"/>
       <use xlink:href="#DejaVuSans-35" x="370.068359"/>
      </g>
     </g>
    </g>
    <g id="xtick_12">
     <g id="line2d_27">
      <g>
       <use xlink:href="#m2299844e9e" x="535.993314" y="246.04" style="stroke: #000000; stroke-width: 0.8"/>
      </g>
     </g>
     <g id="text_24">
      <!-- −199.50 -->
      <g transform="translate(514.308158 260.638438) scale(0.1 -0.1)">
       <use xlink:href="#DejaVuSans-2212"/>
       <use xlink:href="#DejaVuSans-31" x="83.789062"/>
       <use xlink:href="#DejaVuSans-39" x="147.412109"/>
       <use xlink:href="#DejaVuSans-39" x="211.035156"/>
       <use xlink:href="#DejaVuSans-2e" x="274.658203"/>
       <use xlink:href="#DejaVuSans-35" x="306.445312"/>
       <use xlink:href="#DejaVuSans-30" x="370.068359"/>
      </g>
     </g>
    </g>
    <g id="text_25">
     <!-- Y Value (kHz) -->
     <g transform="translate(417.360469 274.316562) scale(0.1 -0.1)">
      <defs>
       <path id="DejaVuSans-59" d="M -13 4666 
L 666 4666 
L 1959 2747 
L 3244 4666 
L 3922 4666 
L 2272 2222 
L 2272 0 
L 1638 0 
L 1638 2222 
L -13 4666 
z
" transform="scale(0.015625)"/>
      </defs>
      <use xlink:href="#DejaVuSans-59"/>
      <use xlink:href="#DejaVuSans-20" x="61.083984"/>
      <use xlink:href="#DejaVuSans-56" x="92.871094"/>
      <use xlink:href="#DejaVuSans-61" x="153.529297"/>
      <use xlink:href="#DejaVuSans-6c" x="214.808594"/>
      <use xlink:href="#DejaVuSans-75" x="242.591797"/>
      <use xlink:href="#DejaVuSans-65" x="305.970703"/>
      <use xlink:href="#DejaVuSans-20" x="367.494141"/>
      <use xlink:href="#DejaVuSans-28" x="399.28125"/>
      <use xlink:href="#DejaVuSans-6b" x="438.294922"/>
      <use xlink:href="#DejaVuSans-48" x="496.205078"/>
      <use xlink:href="#DejaVuSans-7a" x="571.400391"/>
      <use xlink:href="#DejaVuSans-29" x="623.890625"/>
     </g>
    </g>
   </g>
   <g id="matplotlib.axis_4">
    <g id="ytick_10">
     <g id="line2d_28">
      <g>
       <use xlink:href="#maaffd2e0e9" x="332.21" y="236.012727" style="stroke: #000000; stroke-width: 0.8"/>
      </g>
     </g>
     <g id="text_26">
      <!-- 0 -->
      <g transform="translate(318.8475 239.811946) scale(0.1 -0.1)">
       <use xlink:href="#DejaVuSans-30"/>
      </g>
     </g>
    </g>
    <g id="ytick_11">
     <g id="line2d_29">
      <g>
       <use xlink:href="#maaffd2e0e9" x="332.21" y="190.317333" style="stroke: #000000; stroke-width: 0.8"/>
      </g>
     </g>
     <g id="text_27">
      <!-- 2 -->
      <g transform="translate(318.8475 194.116552) scale(0.1 -0.1)">
       <use xlink:href="#DejaVuSans-32"/>
      </g>
     </g>
    </g>
    <g id="ytick_12">
     <g id="line2d_30">
      <g>
       <use xlink:href="#maaffd2e0e9" x="332.21" y="144.621938" style="stroke: #000000; stroke-width: 0.8"/>
      </g>
     </g>
     <g id="text_28">
      <!-- 4 -->
      <g transform="translate(318.8475 148.421157) scale(0.1 -0.1)">
       <use xlink:href="#DejaVuSans-34"/>
      </g>
     </g>
    </g>
    <g id="ytick_13">
     <g id="line2d_31">
      <g>
       <use xlink:href="#maaffd2e0e9" x="332.21" y="98.926544" style="stroke: #000000; stroke-width: 0.8"/>
      </g>
     </g>
     <g id="text_29">
      <!-- 6 -->
      <g transform="translate(318.8475 102.725763) scale(0.1 -0.1)">
       <defs>
        <path id="DejaVuSans-36" d="M 2113 2584 
Q 1688 2584 1439 2293 
Q 1191 2003 1191 1497 
Q 1191 994 1439 701 
Q 1688 409 2113 409 
Q 2538 409 2786 701 
Q 3034 994 3034 1497 
Q 3034 2003 2786 2293 
Q 2538 2584 2113 2584 
z
M 3366 4563 
L 3366 3988 
Q 3128 4100 2886 4159 
Q 2644 4219 2406 4219 
Q 1781 4219 1451 3797 
Q 1122 3375 1075 2522 
Q 1259 2794 1537 2939 
Q 1816 3084 2150 3084 
Q 2853 3084 3261 2657 
Q 3669 2231 3669 1497 
Q 3669 778 3244 343 
Q 2819 -91 2113 -91 
Q 1303 -91 875 529 
Q 447 1150 447 2328 
Q 447 3434 972 4092 
Q 1497 4750 2381 4750 
Q 2619 4750 2861 4703 
Q 3103 4656 3366 4563 
z
" transform="scale(0.015625)"/>
       </defs>
       <use xlink:href="#DejaVuSans-36"/>
      </g>
     </g>
    </g>
    <g id="ytick_14">
     <g id="line2d_32">
      <g>
       <use xlink:href="#maaffd2e0e9" x="332.21" y="53.231149" style="stroke: #000000; stroke-width: 0.8"/>
      </g>
     </g>
     <g id="text_30">
      <!-- 8 -->
      <g transform="translate(318.8475 57.030368) scale(0.1 -0.1)">
       <defs>
        <path id="DejaVuSans-38" d="M 2034 2216 
Q 1584 2216 1326 1975 
Q 1069 1734 1069 1313 
Q 1069 891 1326 650 
Q 1584 409 2034 409 
Q 2484 409 2743 651 
Q 3003 894 3003 1313 
Q 3003 1734 2745 1975 
Q 2488 2216 2034 2216 
z
M 1403 2484 
Q 997 2584 770 2862 
Q 544 3141 544 3541 
Q 544 4100 942 4425 
Q 1341 4750 2034 4750 
Q 2731 4750 3128 4425 
Q 3525 4100 3525 3541 
Q 3525 3141 3298 2862 
Q 3072 2584 2669 2484 
Q 3125 2378 3379 2068 
Q 3634 1759 3634 1313 
Q 3634 634 3220 271 
Q 2806 -91 2034 -91 
Q 1263 -91 848 271 
Q 434 634 434 1313 
Q 434 1759 690 2068 
Q 947 2378 1403 2484 
z
M 1172 3481 
Q 1172 3119 1398 2916 
Q 1625 2713 2034 2713 
Q 2441 2713 2670 2916 
Q 2900 3119 2900 3481 
Q 2900 3844 2670 4047 
Q 2441 4250 2034 4250 
Q 1625 4250 1398 4047 
Q 1172 3844 1172 3481 
z
" transform="scale(0.015625)"/>
       </defs>
       <use xlink:href="#DejaVuSans-38"/>
      </g>
     </g>
    </g>
    <g id="text_31">
     <!-- Loss - Min Loss -->
     <g transform="translate(312.767813 173.117344) rotate(-90) scale(0.1 -0.1)">
      <use xlink:href="#DejaVuSans-4c"/>
      <use xlink:href="#DejaVuSans-6f" x="53.962891"/>
      <use xlink:href="#DejaVuSans-73" x="115.144531"/>
      <use xlink:href="#DejaVuSans-73" x="167.244141"/>
      <use xlink:href="#DejaVuSans-20" x="219.34375"/>
      <use xlink:href="#DejaVuSans-2d" x="251.130859"/>
      <use xlink:href="#DejaVuSans-20" x="287.214844"/>
      <use xlink:href="#DejaVuSans-4d" x="319.001953"/>
      <use xlink:href="#DejaVuSans-69" x="405.28125"/>
      <use xlink:href="#DejaVuSans-6e" x="433.064453"/>
      <use xlink:href="#DejaVuSans-20" x="496.443359"/>
      <use xlink:href="#DejaVuSans-4c" x="528.230469"/>
      <use xlink:href="#DejaVuSans-6f" x="582.193359"/>
      <use xlink:href="#DejaVuSans-73" x="643.375"/>
      <use xlink:href="#DejaVuSans-73" x="695.474609"/>
     </g>
    </g>
   </g>
   <g id="line2d_33">
    <path d="M 342.964091 53.014744 
L 345.136635 60.154468 
L 347.309178 67.162501 
L 349.481722 74.037799 
L 351.654265 80.779359 
L 353.826809 87.386216 
L 355.999353 93.857445 
L 358.171896 100.192168 
L 360.34444 106.389547 
L 362.516983 112.448792 
L 364.689527 118.369155 
L 366.862071 124.149934 
L 369.034614 129.790469 
L 371.207158 135.290143 
L 373.379702 140.648379 
L 375.552245 145.864639 
L 377.724789 150.938421 
L 379.897332 155.869255 
L 382.069876 160.656706 
L 384.24242 165.300361 
L 386.414963 169.799837 
L 388.587507 174.154769 
L 390.760051 178.364812 
L 392.932594 182.429633 
L 395.105138 186.348913 
L 397.277681 190.12234 
L 399.450225 193.749606 
L 401.622769 197.230403 
L 403.795312 200.564425 
L 405.967856 203.751358 
L 408.140399 206.790883 
L 410.312943 209.682672 
L 412.485487 212.426383 
L 414.65803 215.021664 
L 416.830574 217.468146 
L 419.003118 219.765446 
L 421.175661 221.913164 
L 423.348205 223.910883 
L 425.520748 225.758168 
L 427.693292 227.454567 
L 429.865836 228.999614 
L 432.038379 230.392823 
L 434.210923 231.633695 
L 436.383466 232.721718 
L 438.55601 233.656365 
L 440.728554 234.437101 
L 442.901097 235.063378 
L 445.073641 235.53464 
L 447.246185 235.850329 
L 449.418728 236.00988 
L 451.591272 236.012727 
L 453.763815 235.858304 
L 455.936359 235.546046 
L 458.108903 235.075391 
L 460.281446 234.445784 
L 462.45399 233.656674 
L 464.626534 232.70752 
L 466.799077 231.59779 
L 468.971621 230.326966 
L 471.144164 228.894539 
L 473.316708 227.300016 
L 475.489252 225.542916 
L 477.661795 223.622778 
L 479.834339 221.539154 
L 482.006882 219.291615 
L 484.179426 216.879749 
L 486.35197 214.303163 
L 488.524513 211.561483 
L 490.697057 208.654354 
L 492.869601 205.581442 
L 495.042144 202.342429 
L 497.214688 198.937023 
L 499.387231 195.364946 
L 501.559775 191.625945 
L 503.732319 187.719785 
L 505.904862 183.646252 
L 508.077406 179.405152 
L 510.249949 174.996312 
L 512.422493 170.419578 
L 514.595037 165.674818 
L 516.76758 160.761918 
L 518.940124 155.680787 
L 521.112668 150.431352 
L 523.285211 145.01356 
L 525.457755 139.42738 
L 527.630298 133.672798 
L 529.802842 127.749823 
L 531.975386 121.658483 
L 534.147929 115.398824 
L 536.320473 108.970915 
L 538.493017 102.374843 
L 540.66556 95.610716 
L 542.838104 88.678662 
L 545.010647 81.578828 
L 547.183191 74.311383 
L 549.355735 66.876514 
L 551.528278 59.274431 
L 553.700822 51.50536 
L 555.873365 43.569551 
L 558.045909 35.467273 
" clip-path="url(#p2873afc552)" style="fill: none; stroke: #1f77b4; stroke-width: 1.5; stroke-linecap: square"/>
   </g>
   <g id="line2d_34">
    <path d="M 450.505 246.04 
L 450.505 25.44 
" clip-path="url(#p2873afc552)" style="fill: none; stroke-dasharray: 5.55,2.4; stroke-dashoffset: 0; stroke: #000000; stroke-width: 1.5"/>
   </g>
   <g id="line2d_35">
    <path d="M 459.178379 246.04 
L 459.178379 25.44 
" clip-path="url(#p2873afc552)" style="fill: none; stroke-dasharray: 5.55,2.4; stroke-dashoffset: 0; stroke: #ff0000; stroke-width: 1.5"/>
   </g>
   <g id="line2d_36">
    <path d="M 332.21 224.588879 
L 568.8 224.588879 
" clip-path="url(#p2873afc552)" style="fill: none; stroke: #000000; stroke-opacity: 0.5; stroke-width: 1.5; stroke-linecap: square"/>
   </g>
   <g id="line2d_37">
    <path d="M 419.856895 246.04 
L 419.856895 25.44 
" clip-path="url(#p2873afc552)" style="fill: none; stroke-dasharray: 5.55,2.4; stroke-dashoffset: 0; stroke: #000000; stroke-opacity: 0.5; stroke-width: 1.5"/>
   </g>
   <g id="line2d_38">
    <path d="M 481.153105 246.04 
L 481.153105 25.44 
" clip-path="url(#p2873afc552)" style="fill: none; stroke-dasharray: 5.55,2.4; stroke-dashoffset: 0; stroke: #000000; stroke-opacity: 0.5; stroke-width: 1.5"/>
   </g>
   <g id="patch_8">
    <path d="M 332.21 246.04 
L 332.21 25.44 
" style="fill: none; stroke: #000000; stroke-width: 0.8; stroke-linejoin: miter; stroke-linecap: square"/>
   </g>
   <g id="patch_9">
    <path d="M 568.8 246.04 
L 568.8 25.44 
" style="fill: none; stroke: #000000; stroke-width: 0.8; stroke-linejoin: miter; stroke-linecap: square"/>
   </g>
   <g id="patch_10">
    <path d="M 332.21 246.04 
L 568.8 246.04 
" style="fill: none; stroke: #000000; stroke-width: 0.8; stroke-linejoin: miter; stroke-linecap: square"/>
   </g>
   <g id="patch_11">
    <path d="M 332.21 25.44 
L 568.8 25.44 
" style="fill: none; stroke: #000000; stroke-width: 0.8; stroke-linejoin: miter; stroke-linecap: square"/>
   </g>
   <g id="text_32">
    <!-- Loss vs offset Y -->
    <g transform="translate(404.216875 19.44) scale(0.12 -0.12)">
     <use xlink:href="#DejaVuSans-4c"/>
     <use xlink:href="#DejaVuSans-6f" x="53.962891"/>
     <use xlink:href="#DejaVuSans-73" x="115.144531"/>
     <use xlink:href="#DejaVuSans-73" x="167.244141"/>
     <use xlink:href="#DejaVuSans-20" x="219.34375"/>
     <use xlink:href="#DejaVuSans-76" x="251.130859"/>
     <use xlink:href="#DejaVuSans-73" x="310.310547"/>
     <use xlink:href="#DejaVuSans-20" x="362.410156"/>
     <use xlink:href="#DejaVuSans-6f" x="394.197266"/>
     <use xlink:href="#DejaVuSans-66" x="455.378906"/>
     <use xlink:href="#DejaVuSans-66" x="490.583984"/>
     <use xlink:href="#DejaVuSans-73" x="525.789062"/>
     <use xlink:href="#DejaVuSans-65" x="577.888672"/>
     <use xlink:href="#DejaVuSans-74" x="639.412109"/>
     <use xlink:href="#DejaVuSans-20" x="678.621094"/>
     <use xlink:href="#DejaVuSans-59" x="710.408203"/>
    </g>
   </g>
  </g>
  <g id="axes_3">
   <g id="patch_12">
    <path d="M 616.61 246.04 
L 853.2 246.04 
L 853.2 25.44 
L 616.61 25.44 
z
" style="fill: #ffffff"/>
   </g>
   <g id="matplotlib.axis_5">
    <g id="xtick_13">
     <g id="line2d_39">
      <g>
       <use xlink:href="#m2299844e9e" x="641.701772" y="246.04" style="stroke: #000000; stroke-width: 0.8"/>
      </g>
     </g>
     <g id="text_33">
      <!-- 99.75 -->
      <g transform="translate(627.38771 260.638438) scale(0.1 -0.1)">
       <use xlink:href="#DejaVuSans-39"/>
       <use xlink:href="#DejaVuSans-39" x="63.623047"/>
       <use xlink:href="#DejaVuSans-2e" x="127.246094"/>
       <use xlink:href="#DejaVuSans-37" x="159.033203"/>
       <use xlink:href="#DejaVuSans-35" x="222.65625"/>
      </g>
     </g>
    </g>
    <g id="xtick_14">
     <g id="line2d_40">
      <g>
       <use xlink:href="#m2299844e9e" x="680.10924" y="246.04" style="stroke: #000000; stroke-width: 0.8"/>
      </g>
     </g>
     <g id="text_34">
      <!-- 100.00 -->
      <g transform="translate(662.613927 260.638438) scale(0.1 -0.1)">
       <use xlink:href="#DejaVuSans-31"/>
       <use xlink:href="#DejaVuSans-30" x="63.623047"/>
       <use xlink:href="#DejaVuSans-30" x="127.246094"/>
       <use xlink:href="#DejaVuSans-2e" x="190.869141"/>
       <use xlink:href="#DejaVuSans-30" x="222.65625"/>
       <use xlink:href="#DejaVuSans-30" x="286.279297"/>
      </g>
     </g>
    </g>
    <g id="xtick_15">
     <g id="line2d_41">
      <g>
       <use xlink:href="#m2299844e9e" x="718.516707" y="246.04" style="stroke: #000000; stroke-width: 0.8"/>
      </g>
     </g>
     <g id="text_35">
      <!-- 100.25 -->
      <g transform="translate(701.021395 260.638438) scale(0.1 -0.1)">
       <use xlink:href="#DejaVuSans-31"/>
       <use xlink:href="#DejaVuSans-30" x="63.623047"/>
       <use xlink:href="#DejaVuSans-30" x="127.246094"/>
       <use xlink:href="#DejaVuSans-2e" x="190.869141"/>
       <use xlink:href="#DejaVuSans-32" x="222.65625"/>
       <use xlink:href="#DejaVuSans-35" x="286.279297"/>
      </g>
     </g>
    </g>
    <g id="xtick_16">
     <g id="line2d_42">
      <g>
       <use xlink:href="#m2299844e9e" x="756.924175" y="246.04" style="stroke: #000000; stroke-width: 0.8"/>
      </g>
     </g>
     <g id="text_36">
      <!-- 100.50 -->
      <g transform="translate(739.428862 260.638438) scale(0.1 -0.1)">
       <use xlink:href="#DejaVuSans-31"/>
       <use xlink:href="#DejaVuSans-30" x="63.623047"/>
       <use xlink:href="#DejaVuSans-30" x="127.246094"/>
       <use xlink:href="#DejaVuSans-2e" x="190.869141"/>
       <use xlink:href="#DejaVuSans-35" x="222.65625"/>
       <use xlink:href="#DejaVuSans-30" x="286.279297"/>
      </g>
     </g>
    </g>
    <g id="xtick_17">
     <g id="line2d_43">
      <g>
       <use xlink:href="#m2299844e9e" x="795.331643" y="246.04" style="stroke: #000000; stroke-width: 0.8"/>
      </g>
     </g>
     <g id="text_37">
      <!-- 100.75 -->
      <g transform="translate(777.83633 260.638438) scale(0.1 -0.1)">
       <use xlink:href="#DejaVuSans-31"/>
       <use xlink:href="#DejaVuSans-30" x="63.623047"/>
       <use xlink:href="#DejaVuSans-30" x="127.246094"/>
       <use xlink:href="#DejaVuSans-2e" x="190.869141"/>
       <use xlink:href="#DejaVuSans-37" x="222.65625"/>
       <use xlink:href="#DejaVuSans-35" x="286.279297"/>
      </g>
     </g>
    </g>
    <g id="xtick_18">
     <g id="line2d_44">
      <g>
       <use xlink:href="#m2299844e9e" x="833.73911" y="246.04" style="stroke: #000000; stroke-width: 0.8"/>
      </g>
     </g>
     <g id="text_38">
      <!-- 101.00 -->
      <g transform="translate(816.243798 260.638438) scale(0.1 -0.1)">
       <use xlink:href="#DejaVuSans-31"/>
       <use xlink:href="#DejaVuSans-30" x="63.623047"/>
       <use xlink:href="#DejaVuSans-31" x="127.246094"/>
       <use xlink:href="#DejaVuSans-2e" x="190.869141"/>
       <use xlink:href="#DejaVuSans-30" x="222.65625"/>
       <use xlink:href="#DejaVuSans-30" x="286.279297"/>
      </g>
     </g>
    </g>
    <g id="text_39">
     <!-- Z Value (kHz) -->
     <g transform="translate(701.389375 274.316562) scale(0.1 -0.1)">
      <defs>
       <path id="DejaVuSans-5a" d="M 359 4666 
L 4025 4666 
L 4025 4184 
L 1075 531 
L 4097 531 
L 4097 0 
L 288 0 
L 288 481 
L 3238 4134 
L 359 4134 
L 359 4666 
z
" transform="scale(0.015625)"/>
      </defs>
      <use xlink:href="#DejaVuSans-5a"/>
      <use xlink:href="#DejaVuSans-20" x="68.505859"/>
      <use xlink:href="#DejaVuSans-56" x="100.292969"/>
      <use xlink:href="#DejaVuSans-61" x="160.951172"/>
      <use xlink:href="#DejaVuSans-6c" x="222.230469"/>
      <use xlink:href="#DejaVuSans-75" x="250.013672"/>
      <use xlink:href="#DejaVuSans-65" x="313.392578"/>
      <use xlink:href="#DejaVuSans-20" x="374.916016"/>
      <use xlink:href="#DejaVuSans-28" x="406.703125"/>
      <use xlink:href="#DejaVuSans-6b" x="445.716797"/>
      <use xlink:href="#DejaVuSans-48" x="503.626953"/>
      <use xlink:href="#DejaVuSans-7a" x="578.822266"/>
      <use xlink:href="#DejaVuSans-29" x="631.3125"/>
     </g>
    </g>
   </g>
   <g id="matplotlib.axis_6">
    <g id="ytick_15">
     <g id="line2d_45">
      <g>
       <use xlink:href="#maaffd2e0e9" x="616.61" y="236.012727" style="stroke: #000000; stroke-width: 0.8"/>
      </g>
     </g>
     <g id="text_40">
      <!-- 0.0 -->
      <g transform="translate(593.706875 239.811946) scale(0.1 -0.1)">
       <use xlink:href="#DejaVuSans-30"/>
       <use xlink:href="#DejaVuSans-2e" x="63.623047"/>
       <use xlink:href="#DejaVuSans-30" x="95.410156"/>
      </g>
     </g>
    </g>
    <g id="ytick_16">
     <g id="line2d_46">
      <g>
       <use xlink:href="#maaffd2e0e9" x="616.61" y="209.101056" style="stroke: #000000; stroke-width: 0.8"/>
      </g>
     </g>
     <g id="text_41">
      <!-- 0.5 -->
      <g transform="translate(593.706875 212.900275) scale(0.1 -0.1)">
       <use xlink:href="#DejaVuSans-30"/>
       <use xlink:href="#DejaVuSans-2e" x="63.623047"/>
       <use xlink:href="#DejaVuSans-35" x="95.410156"/>
      </g>
     </g>
    </g>
    <g id="ytick_17">
     <g id="line2d_47">
      <g>
       <use xlink:href="#maaffd2e0e9" x="616.61" y="182.189386" style="stroke: #000000; stroke-width: 0.8"/>
      </g>
     </g>
     <g id="text_42">
      <!-- 1.0 -->
      <g transform="translate(593.706875 185.988604) scale(0.1 -0.1)">
       <use xlink:href="#DejaVuSans-31"/>
       <use xlink:href="#DejaVuSans-2e" x="63.623047"/>
       <use xlink:href="#DejaVuSans-30" x="95.410156"/>
      </g>
     </g>
    </g>
    <g id="ytick_18">
     <g id="line2d_48">
      <g>
       <use xlink:href="#maaffd2e0e9" x="616.61" y="155.277715" style="stroke: #000000; stroke-width: 0.8"/>
      </g>
     </g>
     <g id="text_43">
      <!-- 1.5 -->
      <g transform="translate(593.706875 159.076934) scale(0.1 -0.1)">
       <use xlink:href="#DejaVuSans-31"/>
       <use xlink:href="#DejaVuSans-2e" x="63.623047"/>
       <use xlink:href="#DejaVuSans-35" x="95.410156"/>
      </g>
     </g>
    </g>
    <g id="ytick_19">
     <g id="line2d_49">
      <g>
       <use xlink:href="#maaffd2e0e9" x="616.61" y="128.366044" style="stroke: #000000; stroke-width: 0.8"/>
      </g>
     </g>
     <g id="text_44">
      <!-- 2.0 -->
      <g transform="translate(593.706875 132.165263) scale(0.1 -0.1)">
       <use xlink:href="#DejaVuSans-32"/>
       <use xlink:href="#DejaVuSans-2e" x="63.623047"/>
       <use xlink:href="#DejaVuSans-30" x="95.410156"/>
      </g>
     </g>
    </g>
    <g id="ytick_20">
     <g id="line2d_50">
      <g>
       <use xlink:href="#maaffd2e0e9" x="616.61" y="101.454373" style="stroke: #000000; stroke-width: 0.8"/>
      </g>
     </g>
     <g id="text_45">
      <!-- 2.5 -->
      <g transform="translate(593.706875 105.253592) scale(0.1 -0.1)">
       <use xlink:href="#DejaVuSans-32"/>
       <use xlink:href="#DejaVuSans-2e" x="63.623047"/>
       <use xlink:href="#DejaVuSans-35" x="95.410156"/>
      </g>
     </g>
    </g>
    <g id="ytick_21">
     <g id="line2d_51">
      <g>
       <use xlink:href="#maaffd2e0e9" x="616.61" y="74.542702" style="stroke: #000000; stroke-width: 0.8"/>
      </g>
     </g>
     <g id="text_46">
      <!-- 3.0 -->
      <g transform="translate(593.706875 78.341921) scale(0.1 -0.1)">
       <use xlink:href="#DejaVuSans-33"/>
       <use xlink:href="#DejaVuSans-2e" x="63.623047"/>
       <use xlink:href="#DejaVuSans-30" x="95.410156"/>
      </g>
     </g>
    </g>
    <g id="ytick_22">
     <g id="line2d_52">
      <g>
       <use xlink:href="#maaffd2e0e9" x="616.61" y="47.631032" style="stroke: #000000; stroke-width: 0.8"/>
      </g>
     </g>
     <g id="text_47">
      <!-- 3.5 -->
      <g transform="translate(593.706875 51.43025) scale(0.1 -0.1)">
       <use xlink:href="#DejaVuSans-33"/>
       <use xlink:href="#DejaVuSans-2e" x="63.623047"/>
       <use xlink:href="#DejaVuSans-35" x="95.410156"/>
      </g>
     </g>
    </g>
    <g id="text_48">
     <!-- Loss - Min Loss -->
     <g transform="translate(587.627187 173.117344) rotate(-90) scale(0.1 -0.1)">
      <use xlink:href="#DejaVuSans-4c"/>
      <use xlink:href="#DejaVuSans-6f" x="53.962891"/>
      <use xlink:href="#DejaVuSans-73" x="115.144531"/>
      <use xlink:href="#DejaVuSans-73" x="167.244141"/>
      <use xlink:href="#DejaVuSans-20" x="219.34375"/>
      <use xlink:href="#DejaVuSans-2d" x="251.130859"/>
      <use xlink:href="#DejaVuSans-20" x="287.214844"/>
      <use xlink:href="#DejaVuSans-4d" x="319.001953"/>
      <use xlink:href="#DejaVuSans-69" x="405.28125"/>
      <use xlink:href="#DejaVuSans-6e" x="433.064453"/>
      <use xlink:href="#DejaVuSans-20" x="496.443359"/>
      <use xlink:href="#DejaVuSans-4c" x="528.230469"/>
      <use xlink:href="#DejaVuSans-6f" x="582.193359"/>
      <use xlink:href="#DejaVuSans-73" x="643.375"/>
      <use xlink:href="#DejaVuSans-73" x="695.474609"/>
     </g>
    </g>
   </g>
   <g id="line2d_53">
    <path d="M 627.364091 35.467273 
L 629.536635 43.662755 
L 631.709178 51.682524 
L 633.881722 59.526702 
L 636.054265 67.195431 
L 638.226809 74.688873 
L 640.399353 82.007206 
L 642.571896 89.150629 
L 644.74444 96.119359 
L 646.916983 102.913631 
L 649.089527 109.533698 
L 651.262071 115.979829 
L 653.434614 122.252312 
L 655.607158 128.351451 
L 657.779702 134.277566 
L 659.952245 140.030994 
L 662.124789 145.612087 
L 664.297332 151.021212 
L 666.469876 156.258749 
L 668.64242 161.325094 
L 670.814963 166.220656 
L 672.987507 170.945856 
L 675.160051 175.501125 
L 677.332594 179.88691 
L 679.505138 184.103664 
L 681.677681 188.151852 
L 683.850225 192.031946 
L 686.022769 195.744427 
L 688.195312 199.289784 
L 690.367856 202.668508 
L 692.540399 205.881098 
L 694.712943 208.928057 
L 696.885487 211.809889 
L 699.05803 214.527099 
L 701.230574 217.080194 
L 703.403118 219.469679 
L 705.575661 221.696056 
L 707.748205 223.759825 
L 709.920748 225.66148 
L 712.093292 227.401509 
L 714.265836 228.980392 
L 716.438379 230.398602 
L 718.610923 231.6566 
L 720.783466 232.754837 
L 722.95601 233.69375 
L 725.128554 234.473762 
L 727.301097 235.095283 
L 729.473641 235.558704 
L 731.646185 235.8644 
L 733.818728 236.012727 
L 735.991272 236.004023 
L 738.163815 235.838605 
L 740.336359 235.516767 
L 742.508903 235.038784 
L 744.681446 234.404906 
L 746.85399 233.615363 
L 749.026534 232.670359 
L 751.199077 231.570076 
L 753.371621 230.31467 
L 755.544164 228.904276 
L 757.716708 227.339003 
L 759.889252 225.618937 
L 762.061795 223.74414 
L 764.234339 221.71465 
L 766.406882 219.530483 
L 768.579426 217.191632 
L 770.75197 214.698068 
L 772.924513 212.049743 
L 775.097057 209.246586 
L 777.269601 206.288509 
L 779.442144 203.175404 
L 781.614688 199.907146 
L 783.787231 196.483594 
L 785.959775 192.904591 
L 788.132319 189.169967 
L 790.304862 185.279538 
L 792.477406 181.233108 
L 794.649949 177.03047 
L 796.822493 172.671408 
L 798.995037 168.155696 
L 801.16758 163.483103 
L 803.340124 158.653389 
L 805.512668 153.66631 
L 807.685211 148.521617 
L 809.857755 143.219058 
L 812.030298 137.758379 
L 814.202842 132.139323 
L 816.375386 126.361633 
L 818.547929 120.425052 
L 820.720473 114.329322 
L 822.893017 108.074189 
L 825.06556 101.659399 
L 827.238104 95.084699 
L 829.410647 88.349842 
L 831.583191 81.454582 
L 833.755735 74.398675 
L 835.928278 67.181884 
L 838.100822 59.803972 
L 840.273365 52.264711 
L 842.445909 44.563872 
" clip-path="url(#pd7630be496)" style="fill: none; stroke: #1f77b4; stroke-width: 1.5; stroke-linecap: square"/>
   </g>
   <g id="line2d_54">
    <path d="M 734.905 246.04 
L 734.905 25.44 
" clip-path="url(#pd7630be496)" style="fill: none; stroke-dasharray: 5.55,2.4; stroke-dashoffset: 0; stroke: #000000; stroke-width: 1.5"/>
   </g>
   <g id="line2d_55">
    <path d="M 680.10924 246.04 
L 680.10924 25.44 
" clip-path="url(#pd7630be496)" style="fill: none; stroke-dasharray: 5.55,2.4; stroke-dashoffset: 0; stroke: #ff0000; stroke-width: 1.5"/>
   </g>
   <g id="line2d_56">
    <path d="M 616.61 209.101056 
L 853.2 209.101056 
" clip-path="url(#pd7630be496)" style="fill: none; stroke: #000000; stroke-opacity: 0.5; stroke-width: 1.5; stroke-linecap: square"/>
   </g>
   <g id="line2d_57">
    <path d="M 685.017553 246.04 
L 685.017553 25.44 
" clip-path="url(#pd7630be496)" style="fill: none; stroke-dasharray: 5.55,2.4; stroke-dashoffset: 0; stroke: #000000; stroke-opacity: 0.5; stroke-width: 1.5"/>
   </g>
   <g id="line2d_58">
    <path d="M 784.792447 246.04 
L 784.792447 25.44 
" clip-path="url(#pd7630be496)" style="fill: none; stroke-dasharray: 5.55,2.4; stroke-dashoffset: 0; stroke: #000000; stroke-opacity: 0.5; stroke-width: 1.5"/>
   </g>
   <g id="patch_13">
    <path d="M 616.61 246.04 
L 616.61 25.44 
" style="fill: none; stroke: #000000; stroke-width: 0.8; stroke-linejoin: miter; stroke-linecap: square"/>
   </g>
   <g id="patch_14">
    <path d="M 853.2 246.04 
L 853.2 25.44 
" style="fill: none; stroke: #000000; stroke-width: 0.8; stroke-linejoin: miter; stroke-linecap: square"/>
   </g>
   <g id="patch_15">
    <path d="M 616.61 246.04 
L 853.2 246.04 
" style="fill: none; stroke: #000000; stroke-width: 0.8; stroke-linejoin: miter; stroke-linecap: square"/>
   </g>
   <g id="patch_16">
    <path d="M 616.61 25.44 
L 853.2 25.44 
" style="fill: none; stroke: #000000; stroke-width: 0.8; stroke-linejoin: miter; stroke-linecap: square"/>
   </g>
   <g id="text_49">
    <!-- Loss vs offset Z -->
    <g transform="translate(688.171562 19.44) scale(0.12 -0.12)">
     <use xlink:href="#DejaVuSans-4c"/>
     <use xlink:href="#DejaVuSans-6f" x="53.962891"/>
     <use xlink:href="#DejaVuSans-73" x="115.144531"/>
     <use xlink:href="#DejaVuSans-73" x="167.244141"/>
     <use xlink:href="#DejaVuSans-20" x="219.34375"/>
     <use xlink:href="#DejaVuSans-76" x="251.130859"/>
     <use xlink:href="#DejaVuSans-73" x="310.310547"/>
     <use xlink:href="#DejaVuSans-20" x="362.410156"/>
     <use xlink:href="#DejaVuSans-6f" x="394.197266"/>
     <use xlink:href="#DejaVuSans-66" x="455.378906"/>
     <use xlink:href="#DejaVuSans-66" x="490.583984"/>
     <use xlink:href="#DejaVuSans-73" x="525.789062"/>
     <use xlink:href="#DejaVuSans-65" x="577.888672"/>
     <use xlink:href="#DejaVuSans-74" x="639.412109"/>
     <use xlink:href="#DejaVuSans-20" x="678.621094"/>
     <use xlink:href="#DejaVuSans-5a" x="710.408203"/>
    </g>
   </g>
  </g>
 </g>
 <defs>
  <clipPath id="p183624f7c5">
   <rect x="47.81" y="25.44" width="236.59" height="220.6"/>
  </clipPath>
  <clipPath id="p2873afc552">
   <rect x="332.21" y="25.44" width="236.59" height="220.6"/>
  </clipPath>
  <clipPath id="pd7630be496">
   <rect x="616.61" y="25.44" width="236.59" height="220.6"/>
  </clipPath>
 </defs>
</svg>
