<?xml version="1.0" encoding="utf-8" standalone="no"?>
<!DOCTYPE svg PUBLIC "-//W3C//DTD SVG 1.1//EN"
  "http://www.w3.org/Graphics/SVG/1.1/DTD/svg11.dtd">
<svg xmlns:xlink="http://www.w3.org/1999/xlink" width="864pt" height="288pt" viewBox="0 0 864 288" xmlns="http://www.w3.org/2000/svg" version="1.1">
 <metadata>
  <rdf:RDF xmlns:dc="http://purl.org/dc/elements/1.1/" xmlns:cc="http://creativecommons.org/ns#" xmlns:rdf="http://www.w3.org/1999/02/22-rdf-syntax-ns#">
   <cc:Work>
    <dc:type rdf:resource="http://purl.org/dc/dcmitype/StillImage"/>
    <dc:date>2024-09-25T13:12:01.980901</dc:date>
    <dc:format>image/svg+xml</dc:format>
    <dc:creator>
     <cc:Agent>
      <dc:title>Matplotlib v3.8.0, https://matplotlib.org/</dc:title>
     </cc:Agent>
    </dc:creator>
   </cc:Work>
  </rdf:RDF>
 </metadata>
 <defs>
  <style type="text/css">*{stroke-linejoin: round; stroke-linecap: butt}</style>
 </defs>
 <g id="figure_1">
  <g id="patch_1">
   <path d="M 0 288 
L 864 288 
L 864 0 
L 0 0 
z
" style="fill: #ffffff"/>
  </g>
  <g id="axes_1">
   <g id="patch_2">
    <path d="M 51.14 232 
L 280.540711 232 
L 280.540711 35.88 
L 51.14 35.88 
z
" style="fill: #ffffff"/>
   </g>
   <g id="matplotlib.axis_1">
    <g id="xtick_1">
     <g id="line2d_1">
      <defs>
       <path id="mebab0ef3a9" d="M 0 0 
L 0 3.5 
" style="stroke: #000000; stroke-width: 0.8"/>
      </defs>
      <g>
       <use xlink:href="#mebab0ef3a9" x="70.115305" y="232" style="stroke: #000000; stroke-width: 0.8"/>
      </g>
     </g>
     <g id="text_1">
      <!-- 99.0 -->
      <g transform="translate(53.416086 250.397656) scale(0.15 -0.15)">
       <defs>
        <path id="DejaVuSans-39" d="M 703 97 
L 703 672 
Q 941 559 1184 500 
Q 1428 441 1663 441 
Q 2288 441 2617 861 
Q 2947 1281 2994 2138 
Q 2813 1869 2534 1725 
Q 2256 1581 1919 1581 
Q 1219 1581 811 2004 
Q 403 2428 403 3163 
Q 403 3881 828 4315 
Q 1253 4750 1959 4750 
Q 2769 4750 3195 4129 
Q 3622 3509 3622 2328 
Q 3622 1225 3098 567 
Q 2575 -91 1691 -91 
Q 1453 -91 1209 -44 
Q 966 3 703 97 
z
M 1959 2075 
Q 2384 2075 2632 2365 
Q 2881 2656 2881 3163 
Q 2881 3666 2632 3958 
Q 2384 4250 1959 4250 
Q 1534 4250 1286 3958 
Q 1038 3666 1038 3163 
Q 1038 2656 1286 2365 
Q 1534 2075 1959 2075 
z
" transform="scale(0.015625)"/>
        <path id="DejaVuSans-2e" d="M 684 794 
L 1344 794 
L 1344 0 
L 684 0 
L 684 794 
z
" transform="scale(0.015625)"/>
        <path id="DejaVuSans-30" d="M 2034 4250 
Q 1547 4250 1301 3770 
Q 1056 3291 1056 2328 
Q 1056 1369 1301 889 
Q 1547 409 2034 409 
Q 2525 409 2770 889 
Q 3016 1369 3016 2328 
Q 3016 3291 2770 3770 
Q 2525 4250 2034 4250 
z
M 2034 4750 
Q 2819 4750 3233 4129 
Q 3647 3509 3647 2328 
Q 3647 1150 3233 529 
Q 2819 -91 2034 -91 
Q 1250 -91 836 529 
Q 422 1150 422 2328 
Q 422 3509 836 4129 
Q 1250 4750 2034 4750 
z
" transform="scale(0.015625)"/>
       </defs>
       <use xlink:href="#DejaVuSans-39"/>
       <use xlink:href="#DejaVuSans-39" x="63.623047"/>
       <use xlink:href="#DejaVuSans-2e" x="127.246094"/>
       <use xlink:href="#DejaVuSans-30" x="159.033203"/>
      </g>
     </g>
    </g>
    <g id="xtick_2">
     <g id="line2d_2">
      <g>
       <use xlink:href="#mebab0ef3a9" x="144.596055" y="232" style="stroke: #000000; stroke-width: 0.8"/>
      </g>
     </g>
     <g id="text_2">
      <!-- 99.5 -->
      <g transform="translate(127.896836 250.397656) scale(0.15 -0.15)">
       <defs>
        <path id="DejaVuSans-35" d="M 691 4666 
L 3169 4666 
L 3169 4134 
L 1269 4134 
L 1269 2991 
Q 1406 3038 1543 3061 
Q 1681 3084 1819 3084 
Q 2600 3084 3056 2656 
Q 3513 2228 3513 1497 
Q 3513 744 3044 326 
Q 2575 -91 1722 -91 
Q 1428 -91 1123 -41 
Q 819 9 494 109 
L 494 744 
Q 775 591 1075 516 
Q 1375 441 1709 441 
Q 2250 441 2565 725 
Q 2881 1009 2881 1497 
Q 2881 1984 2565 2268 
Q 2250 2553 1709 2553 
Q 1456 2553 1204 2497 
Q 953 2441 691 2322 
L 691 4666 
z
" transform="scale(0.015625)"/>
       </defs>
       <use xlink:href="#DejaVuSans-39"/>
       <use xlink:href="#DejaVuSans-39" x="63.623047"/>
       <use xlink:href="#DejaVuSans-2e" x="127.246094"/>
       <use xlink:href="#DejaVuSans-35" x="159.033203"/>
      </g>
     </g>
    </g>
    <g id="xtick_3">
     <g id="line2d_3">
      <g>
       <use xlink:href="#mebab0ef3a9" x="219.076805" y="232" style="stroke: #000000; stroke-width: 0.8"/>
      </g>
     </g>
     <g id="text_3">
      <!-- 100.0 -->
      <g transform="translate(197.605711 250.397656) scale(0.15 -0.15)">
       <defs>
        <path id="DejaVuSans-31" d="M 794 531 
L 1825 531 
L 1825 4091 
L 703 3866 
L 703 4441 
L 1819 4666 
L 2450 4666 
L 2450 531 
L 3481 531 
L 3481 0 
L 794 0 
L 794 531 
z
" transform="scale(0.015625)"/>
       </defs>
       <use xlink:href="#DejaVuSans-31"/>
       <use xlink:href="#DejaVuSans-30" x="63.623047"/>
       <use xlink:href="#DejaVuSans-30" x="127.246094"/>
       <use xlink:href="#DejaVuSans-2e" x="190.869141"/>
       <use xlink:href="#DejaVuSans-30" x="222.65625"/>
      </g>
     </g>
    </g>
    <g id="text_4">
     <!-- X Value (kHz) -->
     <g transform="translate(115.566918 268.914844) scale(0.15 -0.15)">
      <defs>
       <path id="DejaVuSans-58" d="M 403 4666 
L 1081 4666 
L 2241 2931 
L 3406 4666 
L 4084 4666 
L 2584 2425 
L 4184 0 
L 3506 0 
L 2194 1984 
L 872 0 
L 191 0 
L 1856 2491 
L 403 4666 
z
" transform="scale(0.015625)"/>
       <path id="DejaVuSans-20" transform="scale(0.015625)"/>
       <path id="DejaVuSans-56" d="M 1831 0 
L 50 4666 
L 709 4666 
L 2188 738 
L 3669 4666 
L 4325 4666 
L 2547 0 
L 1831 0 
z
" transform="scale(0.015625)"/>
       <path id="DejaVuSans-61" d="M 2194 1759 
Q 1497 1759 1228 1600 
Q 959 1441 959 1056 
Q 959 750 1161 570 
Q 1363 391 1709 391 
Q 2188 391 2477 730 
Q 2766 1069 2766 1631 
L 2766 1759 
L 2194 1759 
z
M 3341 1997 
L 3341 0 
L 2766 0 
L 2766 531 
Q 2569 213 2275 61 
Q 1981 -91 1556 -91 
Q 1019 -91 701 211 
Q 384 513 384 1019 
Q 384 1609 779 1909 
Q 1175 2209 1959 2209 
L 2766 2209 
L 2766 2266 
Q 2766 2663 2505 2880 
Q 2244 3097 1772 3097 
Q 1472 3097 1187 3025 
Q 903 2953 641 2809 
L 641 3341 
Q 956 3463 1253 3523 
Q 1550 3584 1831 3584 
Q 2591 3584 2966 3190 
Q 3341 2797 3341 1997 
z
" transform="scale(0.015625)"/>
       <path id="DejaVuSans-6c" d="M 603 4863 
L 1178 4863 
L 1178 0 
L 603 0 
L 603 4863 
z
" transform="scale(0.015625)"/>
       <path id="DejaVuSans-75" d="M 544 1381 
L 544 3500 
L 1119 3500 
L 1119 1403 
Q 1119 906 1312 657 
Q 1506 409 1894 409 
Q 2359 409 2629 706 
Q 2900 1003 2900 1516 
L 2900 3500 
L 3475 3500 
L 3475 0 
L 2900 0 
L 2900 538 
Q 2691 219 2414 64 
Q 2138 -91 1772 -91 
Q 1169 -91 856 284 
Q 544 659 544 1381 
z
M 1991 3584 
L 1991 3584 
z
" transform="scale(0.015625)"/>
       <path id="DejaVuSans-65" d="M 3597 1894 
L 3597 1613 
L 953 1613 
Q 991 1019 1311 708 
Q 1631 397 2203 397 
Q 2534 397 2845 478 
Q 3156 559 3463 722 
L 3463 178 
Q 3153 47 2828 -22 
Q 2503 -91 2169 -91 
Q 1331 -91 842 396 
Q 353 884 353 1716 
Q 353 2575 817 3079 
Q 1281 3584 2069 3584 
Q 2775 3584 3186 3129 
Q 3597 2675 3597 1894 
z
M 3022 2063 
Q 3016 2534 2758 2815 
Q 2500 3097 2075 3097 
Q 1594 3097 1305 2825 
Q 1016 2553 972 2059 
L 3022 2063 
z
" transform="scale(0.015625)"/>
       <path id="DejaVuSans-28" d="M 1984 4856 
Q 1566 4138 1362 3434 
Q 1159 2731 1159 2009 
Q 1159 1288 1364 580 
Q 1569 -128 1984 -844 
L 1484 -844 
Q 1016 -109 783 600 
Q 550 1309 550 2009 
Q 550 2706 781 3412 
Q 1013 4119 1484 4856 
L 1984 4856 
z
" transform="scale(0.015625)"/>
       <path id="DejaVuSans-6b" d="M 581 4863 
L 1159 4863 
L 1159 1991 
L 2875 3500 
L 3609 3500 
L 1753 1863 
L 3688 0 
L 2938 0 
L 1159 1709 
L 1159 0 
L 581 0 
L 581 4863 
z
" transform="scale(0.015625)"/>
       <path id="DejaVuSans-48" d="M 628 4666 
L 1259 4666 
L 1259 2753 
L 3553 2753 
L 3553 4666 
L 4184 4666 
L 4184 0 
L 3553 0 
L 3553 2222 
L 1259 2222 
L 1259 0 
L 628 0 
L 628 4666 
z
" transform="scale(0.015625)"/>
       <path id="DejaVuSans-7a" d="M 353 3500 
L 3084 3500 
L 3084 2975 
L 922 459 
L 3084 459 
L 3084 0 
L 275 0 
L 275 525 
L 2438 3041 
L 353 3041 
L 353 3500 
z
" transform="scale(0.015625)"/>
       <path id="DejaVuSans-29" d="M 513 4856 
L 1013 4856 
Q 1481 4119 1714 3412 
Q 1947 2706 1947 2009 
Q 1947 1309 1714 600 
Q 1481 -109 1013 -844 
L 513 -844 
Q 928 -128 1133 580 
Q 1338 1288 1338 2009 
Q 1338 2731 1133 3434 
Q 928 4138 513 4856 
z
" transform="scale(0.015625)"/>
      </defs>
      <use xlink:href="#DejaVuSans-58"/>
      <use xlink:href="#DejaVuSans-20" x="68.505859"/>
      <use xlink:href="#DejaVuSans-56" x="100.292969"/>
      <use xlink:href="#DejaVuSans-61" x="160.951172"/>
      <use xlink:href="#DejaVuSans-6c" x="222.230469"/>
      <use xlink:href="#DejaVuSans-75" x="250.013672"/>
      <use xlink:href="#DejaVuSans-65" x="313.392578"/>
      <use xlink:href="#DejaVuSans-20" x="374.916016"/>
      <use xlink:href="#DejaVuSans-28" x="406.703125"/>
      <use xlink:href="#DejaVuSans-6b" x="445.716797"/>
      <use xlink:href="#DejaVuSans-48" x="503.626953"/>
      <use xlink:href="#DejaVuSans-7a" x="578.822266"/>
      <use xlink:href="#DejaVuSans-29" x="631.3125"/>
     </g>
    </g>
   </g>
   <g id="matplotlib.axis_2">
    <g id="ytick_1">
     <g id="line2d_4">
      <defs>
       <path id="m9068f2950c" d="M 0 0 
L -3.5 0 
" style="stroke: #000000; stroke-width: 0.8"/>
      </defs>
      <g>
       <use xlink:href="#m9068f2950c" x="51.14" y="223.085455" style="stroke: #000000; stroke-width: 0.8"/>
      </g>
     </g>
     <g id="text_5">
      <!-- 0 -->
      <g transform="translate(34.59625 228.784283) scale(0.15 -0.15)">
       <use xlink:href="#DejaVuSans-30"/>
      </g>
     </g>
    </g>
    <g id="ytick_2">
     <g id="line2d_5">
      <g>
       <use xlink:href="#m9068f2950c" x="51.14" y="179.378476" style="stroke: #000000; stroke-width: 0.8"/>
      </g>
     </g>
     <g id="text_6">
      <!-- 1 -->
      <g transform="translate(34.59625 185.077305) scale(0.15 -0.15)">
       <use xlink:href="#DejaVuSans-31"/>
      </g>
     </g>
    </g>
    <g id="ytick_3">
     <g id="line2d_6">
      <g>
       <use xlink:href="#m9068f2950c" x="51.14" y="135.671498" style="stroke: #000000; stroke-width: 0.8"/>
      </g>
     </g>
     <g id="text_7">
      <!-- 2 -->
      <g transform="translate(34.59625 141.370326) scale(0.15 -0.15)">
       <defs>
        <path id="DejaVuSans-32" d="M 1228 531 
L 3431 531 
L 3431 0 
L 469 0 
L 469 531 
Q 828 903 1448 1529 
Q 2069 2156 2228 2338 
Q 2531 2678 2651 2914 
Q 2772 3150 2772 3378 
Q 2772 3750 2511 3984 
Q 2250 4219 1831 4219 
Q 1534 4219 1204 4116 
Q 875 4013 500 3803 
L 500 4441 
Q 881 4594 1212 4672 
Q 1544 4750 1819 4750 
Q 2544 4750 2975 4387 
Q 3406 4025 3406 3419 
Q 3406 3131 3298 2873 
Q 3191 2616 2906 2266 
Q 2828 2175 2409 1742 
Q 1991 1309 1228 531 
z
" transform="scale(0.015625)"/>
       </defs>
       <use xlink:href="#DejaVuSans-32"/>
      </g>
     </g>
    </g>
    <g id="ytick_4">
     <g id="line2d_7">
      <g>
       <use xlink:href="#m9068f2950c" x="51.14" y="91.96452" style="stroke: #000000; stroke-width: 0.8"/>
      </g>
     </g>
     <g id="text_8">
      <!-- 3 -->
      <g transform="translate(34.59625 97.663348) scale(0.15 -0.15)">
       <defs>
        <path id="DejaVuSans-33" d="M 2597 2516 
Q 3050 2419 3304 2112 
Q 3559 1806 3559 1356 
Q 3559 666 3084 287 
Q 2609 -91 1734 -91 
Q 1441 -91 1130 -33 
Q 819 25 488 141 
L 488 750 
Q 750 597 1062 519 
Q 1375 441 1716 441 
Q 2309 441 2620 675 
Q 2931 909 2931 1356 
Q 2931 1769 2642 2001 
Q 2353 2234 1838 2234 
L 1294 2234 
L 1294 2753 
L 1863 2753 
Q 2328 2753 2575 2939 
Q 2822 3125 2822 3475 
Q 2822 3834 2567 4026 
Q 2313 4219 1838 4219 
Q 1578 4219 1281 4162 
Q 984 4106 628 3988 
L 628 4550 
Q 988 4650 1302 4700 
Q 1616 4750 1894 4750 
Q 2613 4750 3031 4423 
Q 3450 4097 3450 3541 
Q 3450 3153 3228 2886 
Q 3006 2619 2597 2516 
z
" transform="scale(0.015625)"/>
       </defs>
       <use xlink:href="#DejaVuSans-33"/>
      </g>
     </g>
    </g>
    <g id="ytick_5">
     <g id="line2d_8">
      <g>
       <use xlink:href="#m9068f2950c" x="51.14" y="48.257542" style="stroke: #000000; stroke-width: 0.8"/>
      </g>
     </g>
     <g id="text_9">
      <!-- 4 -->
      <g transform="translate(34.59625 53.95637) scale(0.15 -0.15)">
       <defs>
        <path id="DejaVuSans-34" d="M 2419 4116 
L 825 1625 
L 2419 1625 
L 2419 4116 
z
M 2253 4666 
L 3047 4666 
L 3047 1625 
L 3713 1625 
L 3713 1100 
L 3047 1100 
L 3047 0 
L 2419 0 
L 2419 1100 
L 313 1100 
L 313 1709 
L 2253 4666 
z
" transform="scale(0.015625)"/>
       </defs>
       <use xlink:href="#DejaVuSans-34"/>
      </g>
     </g>
    </g>
    <g id="text_10">
     <!-- Loss - Min Loss -->
     <g transform="translate(27.476719 190.006016) rotate(-90) scale(0.15 -0.15)">
      <defs>
       <path id="DejaVuSans-4c" d="M 628 4666 
L 1259 4666 
L 1259 531 
L 3531 531 
L 3531 0 
L 628 0 
L 628 4666 
z
" transform="scale(0.015625)"/>
       <path id="DejaVuSans-6f" d="M 1959 3097 
Q 1497 3097 1228 2736 
Q 959 2375 959 1747 
Q 959 1119 1226 758 
Q 1494 397 1959 397 
Q 2419 397 2687 759 
Q 2956 1122 2956 1747 
Q 2956 2369 2687 2733 
Q 2419 3097 1959 3097 
z
M 1959 3584 
Q 2709 3584 3137 3096 
Q 3566 2609 3566 1747 
Q 3566 888 3137 398 
Q 2709 -91 1959 -91 
Q 1206 -91 779 398 
Q 353 888 353 1747 
Q 353 2609 779 3096 
Q 1206 3584 1959 3584 
z
" transform="scale(0.015625)"/>
       <path id="DejaVuSans-73" d="M 2834 3397 
L 2834 2853 
Q 2591 2978 2328 3040 
Q 2066 3103 1784 3103 
Q 1356 3103 1142 2972 
Q 928 2841 928 2578 
Q 928 2378 1081 2264 
Q 1234 2150 1697 2047 
L 1894 2003 
Q 2506 1872 2764 1633 
Q 3022 1394 3022 966 
Q 3022 478 2636 193 
Q 2250 -91 1575 -91 
Q 1294 -91 989 -36 
Q 684 19 347 128 
L 347 722 
Q 666 556 975 473 
Q 1284 391 1588 391 
Q 1994 391 2212 530 
Q 2431 669 2431 922 
Q 2431 1156 2273 1281 
Q 2116 1406 1581 1522 
L 1381 1569 
Q 847 1681 609 1914 
Q 372 2147 372 2553 
Q 372 3047 722 3315 
Q 1072 3584 1716 3584 
Q 2034 3584 2315 3537 
Q 2597 3491 2834 3397 
z
" transform="scale(0.015625)"/>
       <path id="DejaVuSans-2d" d="M 313 2009 
L 1997 2009 
L 1997 1497 
L 313 1497 
L 313 2009 
z
" transform="scale(0.015625)"/>
       <path id="DejaVuSans-4d" d="M 628 4666 
L 1569 4666 
L 2759 1491 
L 3956 4666 
L 4897 4666 
L 4897 0 
L 4281 0 
L 4281 4097 
L 3078 897 
L 2444 897 
L 1241 4097 
L 1241 0 
L 628 0 
L 628 4666 
z
" transform="scale(0.015625)"/>
       <path id="DejaVuSans-69" d="M 603 3500 
L 1178 3500 
L 1178 0 
L 603 0 
L 603 3500 
z
M 603 4863 
L 1178 4863 
L 1178 4134 
L 603 4134 
L 603 4863 
z
" transform="scale(0.015625)"/>
       <path id="DejaVuSans-6e" d="M 3513 2113 
L 3513 0 
L 2938 0 
L 2938 2094 
Q 2938 2591 2744 2837 
Q 2550 3084 2163 3084 
Q 1697 3084 1428 2787 
Q 1159 2491 1159 1978 
L 1159 0 
L 581 0 
L 581 3500 
L 1159 3500 
L 1159 2956 
Q 1366 3272 1645 3428 
Q 1925 3584 2291 3584 
Q 2894 3584 3203 3211 
Q 3513 2838 3513 2113 
z
" transform="scale(0.015625)"/>
      </defs>
      <use xlink:href="#DejaVuSans-4c"/>
      <use xlink:href="#DejaVuSans-6f" x="53.962891"/>
      <use xlink:href="#DejaVuSans-73" x="115.144531"/>
      <use xlink:href="#DejaVuSans-73" x="167.244141"/>
      <use xlink:href="#DejaVuSans-20" x="219.34375"/>
      <use xlink:href="#DejaVuSans-2d" x="251.130859"/>
      <use xlink:href="#DejaVuSans-20" x="287.214844"/>
      <use xlink:href="#DejaVuSans-4d" x="319.001953"/>
      <use xlink:href="#DejaVuSans-69" x="405.28125"/>
      <use xlink:href="#DejaVuSans-6e" x="433.064453"/>
      <use xlink:href="#DejaVuSans-20" x="496.443359"/>
      <use xlink:href="#DejaVuSans-4c" x="528.230469"/>
      <use xlink:href="#DejaVuSans-6f" x="582.193359"/>
      <use xlink:href="#DejaVuSans-73" x="643.375"/>
      <use xlink:href="#DejaVuSans-73" x="695.474609"/>
     </g>
    </g>
   </g>
   <g id="line2d_9">
    <path d="M 61.567305 44.794545 
L 63.673831 51.978844 
L 65.780358 59.015784 
L 67.886884 65.905209 
L 69.99341 72.646972 
L 72.099936 79.240933 
L 74.206463 85.686962 
L 76.312989 91.984938 
L 78.419515 98.134749 
L 80.526041 104.136293 
L 82.632568 109.989479 
L 84.739094 115.694227 
L 86.84562 121.250465 
L 88.952147 126.658137 
L 91.058673 131.917197 
L 93.165199 137.02761 
L 95.271725 141.989354 
L 97.378252 146.802423 
L 99.484778 151.466821 
L 101.591304 155.982566 
L 103.69783 160.349693 
L 105.804357 164.568249 
L 107.910883 168.638296 
L 110.017409 172.559913 
L 112.123935 176.333193 
L 114.230462 179.958245 
L 116.336988 183.435194 
L 118.443514 186.764184 
L 120.550041 189.945373 
L 122.656567 192.978938 
L 124.763093 195.865071 
L 126.869619 198.603985 
L 128.976146 201.195908 
L 131.082672 203.641088 
L 133.189198 205.939789 
L 135.295724 208.092296 
L 137.402251 210.09891 
L 139.508777 211.959953 
L 141.615303 213.675762 
L 143.72183 215.246697 
L 145.828356 216.673132 
L 147.934882 217.955463 
L 150.041408 219.0941 
L 152.147935 220.089475 
L 154.254461 220.942035 
L 156.360987 221.652245 
L 158.467513 222.220587 
L 160.57404 222.647557 
L 162.680566 222.933671 
L 164.787092 223.079456 
L 166.893618 223.085455 
L 169.000145 222.952224 
L 171.106671 222.680332 
L 173.213197 222.270359 
L 175.319724 221.722897 
L 177.42625 221.038547 
L 179.532776 220.217915 
L 181.639302 219.26162 
L 183.745829 218.170282 
L 185.852355 216.944526 
L 187.958881 215.584983 
L 190.065407 214.092283 
L 192.171934 212.467055 
L 194.27846 210.709928 
L 196.384986 208.821527 
L 198.491512 206.802471 
L 200.598039 204.653375 
L 202.704565 202.374843 
L 204.811091 199.967473 
L 206.917618 197.431847 
L 209.024144 194.76854 
L 211.13067 191.978108 
L 213.237196 189.061094 
L 215.343723 186.018026 
L 217.450249 182.849411 
L 219.556775 179.555739 
L 221.663301 176.137482 
L 223.769828 172.595087 
L 225.876354 168.928986 
L 227.98288 165.139584 
L 230.089407 161.227268 
L 232.195933 157.192401 
L 234.302459 153.035326 
L 236.408985 148.756361 
L 238.515512 144.355806 
L 240.622038 139.833937 
L 242.728564 135.191011 
L 244.83509 130.427265 
L 246.941617 125.542918 
L 249.048143 120.538169 
L 251.154669 115.413201 
L 253.261195 110.168183 
L 255.367722 104.803267 
L 257.474248 99.318593 
L 259.580774 93.714288 
L 261.687301 87.990472 
L 263.793827 82.147252 
L 265.900353 76.18473 
L 268.006879 70.103 
L 270.113406 63.902153 
" clip-path="url(#pc0679be454)" style="fill: none; stroke: #189bc4; stroke-width: 2; stroke-linecap: square"/>
   </g>
   <g id="line2d_10">
    <path d="M 165.840355 232 
L 165.840355 35.88 
" clip-path="url(#pc0679be454)" style="fill: none; stroke-dasharray: 7.4,3.2; stroke-dashoffset: 0; stroke: #000000; stroke-width: 2"/>
   </g>
   <g id="line2d_11">
    <path d="M 219.076805 232 
L 219.076805 35.88 
" clip-path="url(#pc0679be454)" style="fill: none; stroke-dasharray: 7.4,3.2; stroke-dashoffset: 0; stroke: #ff0000; stroke-width: 2"/>
   </g>
   <g id="line2d_12">
    <path d="M 51.14 201.231965 
L 280.540711 201.231965 
" clip-path="url(#pc0679be454)" style="fill: none; stroke: #000000; stroke-opacity: 0.5; stroke-width: 2; stroke-linecap: square"/>
   </g>
   <g id="line2d_13">
    <path d="M 117.363423 232 
L 117.363423 35.88 
" clip-path="url(#pc0679be454)" style="fill: none; stroke-dasharray: 7.4,3.2; stroke-dashoffset: 0; stroke: #000000; stroke-opacity: 0.5; stroke-width: 2"/>
   </g>
   <g id="line2d_14">
    <path d="M 214.317288 232 
L 214.317288 35.88 
" clip-path="url(#pc0679be454)" style="fill: none; stroke-dasharray: 7.4,3.2; stroke-dashoffset: 0; stroke: #000000; stroke-opacity: 0.5; stroke-width: 2"/>
   </g>
   <g id="patch_3">
    <path d="M 51.14 232 
L 51.14 35.88 
" style="fill: none; stroke: #000000; stroke-linejoin: miter; stroke-linecap: square"/>
   </g>
   <g id="patch_4">
    <path d="M 280.540711 232 
L 280.540711 35.88 
" style="fill: none; stroke: #000000; stroke-linejoin: miter; stroke-linecap: square"/>
   </g>
   <g id="patch_5">
    <path d="M 51.14 232 
L 280.540711 232 
" style="fill: none; stroke: #000000; stroke-linejoin: miter; stroke-linecap: square"/>
   </g>
   <g id="patch_6">
    <path d="M 51.14 35.88 
L 280.540711 35.88 
" style="fill: none; stroke: #000000; stroke-linejoin: miter; stroke-linecap: square"/>
   </g>
   <g id="text_11">
    <!-- Loss vs offset X -->
    <g transform="translate(95.740199 29.88) scale(0.18 -0.18)">
     <defs>
      <path id="DejaVuSans-76" d="M 191 3500 
L 800 3500 
L 1894 563 
L 2988 3500 
L 3597 3500 
L 2284 0 
L 1503 0 
L 191 3500 
z
" transform="scale(0.015625)"/>
      <path id="DejaVuSans-66" d="M 2375 4863 
L 2375 4384 
L 1825 4384 
Q 1516 4384 1395 4259 
Q 1275 4134 1275 3809 
L 1275 3500 
L 2222 3500 
L 2222 3053 
L 1275 3053 
L 1275 0 
L 697 0 
L 697 3053 
L 147 3053 
L 147 3500 
L 697 3500 
L 697 3744 
Q 697 4328 969 4595 
Q 1241 4863 1831 4863 
L 2375 4863 
z
" transform="scale(0.015625)"/>
      <path id="DejaVuSans-74" d="M 1172 4494 
L 1172 3500 
L 2356 3500 
L 2356 3053 
L 1172 3053 
L 1172 1153 
Q 1172 725 1289 603 
Q 1406 481 1766 481 
L 2356 481 
L 2356 0 
L 1766 0 
Q 1100 0 847 248 
Q 594 497 594 1153 
L 594 3053 
L 172 3053 
L 172 3500 
L 594 3500 
L 594 4494 
L 1172 4494 
z
" transform="scale(0.015625)"/>
     </defs>
     <use xlink:href="#DejaVuSans-4c"/>
     <use xlink:href="#DejaVuSans-6f" x="53.962891"/>
     <use xlink:href="#DejaVuSans-73" x="115.144531"/>
     <use xlink:href="#DejaVuSans-73" x="167.244141"/>
     <use xlink:href="#DejaVuSans-20" x="219.34375"/>
     <use xlink:href="#DejaVuSans-76" x="251.130859"/>
     <use xlink:href="#DejaVuSans-73" x="310.310547"/>
     <use xlink:href="#DejaVuSans-20" x="362.410156"/>
     <use xlink:href="#DejaVuSans-6f" x="394.197266"/>
     <use xlink:href="#DejaVuSans-66" x="455.378906"/>
     <use xlink:href="#DejaVuSans-66" x="490.583984"/>
     <use xlink:href="#DejaVuSans-73" x="525.789062"/>
     <use xlink:href="#DejaVuSans-65" x="577.888672"/>
     <use xlink:href="#DejaVuSans-74" x="639.412109"/>
     <use xlink:href="#DejaVuSans-20" x="678.621094"/>
     <use xlink:href="#DejaVuSans-58" x="710.408203"/>
    </g>
   </g>
  </g>
  <g id="axes_2">
   <g id="patch_7">
    <path d="M 332.136918 232 
L 561.537628 232 
L 561.537628 35.88 
L 332.136918 35.88 
z
" style="fill: #ffffff"/>
   </g>
   <g id="matplotlib.axis_3">
    <g id="xtick_4">
     <g id="line2d_15">
      <g>
       <use xlink:href="#mebab0ef3a9" x="380.766343" y="232" style="stroke: #000000; stroke-width: 0.8"/>
      </g>
     </g>
     <g id="text_12">
      <!-- −200.5 -->
      <g transform="translate(353.010483 250.397656) scale(0.15 -0.15)">
       <defs>
        <path id="DejaVuSans-2212" d="M 678 2272 
L 4684 2272 
L 4684 1741 
L 678 1741 
L 678 2272 
z
" transform="scale(0.015625)"/>
       </defs>
       <use xlink:href="#DejaVuSans-2212"/>
       <use xlink:href="#DejaVuSans-32" x="83.789062"/>
       <use xlink:href="#DejaVuSans-30" x="147.412109"/>
       <use xlink:href="#DejaVuSans-30" x="211.035156"/>
       <use xlink:href="#DejaVuSans-2e" x="274.658203"/>
       <use xlink:href="#DejaVuSans-35" x="306.445312"/>
      </g>
     </g>
    </g>
    <g id="xtick_5">
     <g id="line2d_16">
      <g>
       <use xlink:href="#mebab0ef3a9" x="455.247093" y="232" style="stroke: #000000; stroke-width: 0.8"/>
      </g>
     </g>
     <g id="text_13">
      <!-- −200.0 -->
      <g transform="translate(427.491233 250.397656) scale(0.15 -0.15)">
       <use xlink:href="#DejaVuSans-2212"/>
       <use xlink:href="#DejaVuSans-32" x="83.789062"/>
       <use xlink:href="#DejaVuSans-30" x="147.412109"/>
       <use xlink:href="#DejaVuSans-30" x="211.035156"/>
       <use xlink:href="#DejaVuSans-2e" x="274.658203"/>
       <use xlink:href="#DejaVuSans-30" x="306.445312"/>
      </g>
     </g>
    </g>
    <g id="xtick_6">
     <g id="line2d_17">
      <g>
       <use xlink:href="#mebab0ef3a9" x="529.727843" y="232" style="stroke: #000000; stroke-width: 0.8"/>
      </g>
     </g>
     <g id="text_14">
      <!-- −199.5 -->
      <g transform="translate(501.971984 250.397656) scale(0.15 -0.15)">
       <use xlink:href="#DejaVuSans-2212"/>
       <use xlink:href="#DejaVuSans-31" x="83.789062"/>
       <use xlink:href="#DejaVuSans-39" x="147.412109"/>
       <use xlink:href="#DejaVuSans-39" x="211.035156"/>
       <use xlink:href="#DejaVuSans-2e" x="274.658203"/>
       <use xlink:href="#DejaVuSans-35" x="306.445312"/>
      </g>
     </g>
    </g>
    <g id="text_15">
     <!-- Y Value (kHz) -->
     <g transform="translate(397.120476 268.914844) scale(0.15 -0.15)">
      <defs>
       <path id="DejaVuSans-59" d="M -13 4666 
L 666 4666 
L 1959 2747 
L 3244 4666 
L 3922 4666 
L 2272 2222 
L 2272 0 
L 1638 0 
L 1638 2222 
L -13 4666 
z
" transform="scale(0.015625)"/>
      </defs>
      <use xlink:href="#DejaVuSans-59"/>
      <use xlink:href="#DejaVuSans-20" x="61.083984"/>
      <use xlink:href="#DejaVuSans-56" x="92.871094"/>
      <use xlink:href="#DejaVuSans-61" x="153.529297"/>
      <use xlink:href="#DejaVuSans-6c" x="214.808594"/>
      <use xlink:href="#DejaVuSans-75" x="242.591797"/>
      <use xlink:href="#DejaVuSans-65" x="305.970703"/>
      <use xlink:href="#DejaVuSans-20" x="367.494141"/>
      <use xlink:href="#DejaVuSans-28" x="399.28125"/>
      <use xlink:href="#DejaVuSans-6b" x="438.294922"/>
      <use xlink:href="#DejaVuSans-48" x="496.205078"/>
      <use xlink:href="#DejaVuSans-7a" x="571.400391"/>
      <use xlink:href="#DejaVuSans-29" x="623.890625"/>
     </g>
    </g>
   </g>
   <g id="matplotlib.axis_4">
    <g id="ytick_6">
     <g id="line2d_18">
      <g>
       <use xlink:href="#m9068f2950c" x="332.136918" y="223.085455" style="stroke: #000000; stroke-width: 0.8"/>
      </g>
     </g>
     <g id="text_16">
      <!-- 0 -->
      <g transform="translate(315.593168 228.784283) scale(0.15 -0.15)">
       <use xlink:href="#DejaVuSans-30"/>
      </g>
     </g>
    </g>
    <g id="ytick_7">
     <g id="line2d_19">
      <g>
       <use xlink:href="#m9068f2950c" x="332.136918" y="182.460882" style="stroke: #000000; stroke-width: 0.8"/>
      </g>
     </g>
     <g id="text_17">
      <!-- 2 -->
      <g transform="translate(315.593168 188.15971) scale(0.15 -0.15)">
       <use xlink:href="#DejaVuSans-32"/>
      </g>
     </g>
    </g>
    <g id="ytick_8">
     <g id="line2d_20">
      <g>
       <use xlink:href="#m9068f2950c" x="332.136918" y="141.836309" style="stroke: #000000; stroke-width: 0.8"/>
      </g>
     </g>
     <g id="text_18">
      <!-- 4 -->
      <g transform="translate(315.593168 147.535137) scale(0.15 -0.15)">
       <use xlink:href="#DejaVuSans-34"/>
      </g>
     </g>
    </g>
    <g id="ytick_9">
     <g id="line2d_21">
      <g>
       <use xlink:href="#m9068f2950c" x="332.136918" y="101.211736" style="stroke: #000000; stroke-width: 0.8"/>
      </g>
     </g>
     <g id="text_19">
      <!-- 6 -->
      <g transform="translate(315.593168 106.910564) scale(0.15 -0.15)">
       <defs>
        <path id="DejaVuSans-36" d="M 2113 2584 
Q 1688 2584 1439 2293 
Q 1191 2003 1191 1497 
Q 1191 994 1439 701 
Q 1688 409 2113 409 
Q 2538 409 2786 701 
Q 3034 994 3034 1497 
Q 3034 2003 2786 2293 
Q 2538 2584 2113 2584 
z
M 3366 4563 
L 3366 3988 
Q 3128 4100 2886 4159 
Q 2644 4219 2406 4219 
Q 1781 4219 1451 3797 
Q 1122 3375 1075 2522 
Q 1259 2794 1537 2939 
Q 1816 3084 2150 3084 
Q 2853 3084 3261 2657 
Q 3669 2231 3669 1497 
Q 3669 778 3244 343 
Q 2819 -91 2113 -91 
Q 1303 -91 875 529 
Q 447 1150 447 2328 
Q 447 3434 972 4092 
Q 1497 4750 2381 4750 
Q 2619 4750 2861 4703 
Q 3103 4656 3366 4563 
z
" transform="scale(0.015625)"/>
       </defs>
       <use xlink:href="#DejaVuSans-36"/>
      </g>
     </g>
    </g>
    <g id="ytick_10">
     <g id="line2d_22">
      <g>
       <use xlink:href="#m9068f2950c" x="332.136918" y="60.587163" style="stroke: #000000; stroke-width: 0.8"/>
      </g>
     </g>
     <g id="text_20">
      <!-- 8 -->
      <g transform="translate(315.593168 66.285991) scale(0.15 -0.15)">
       <defs>
        <path id="DejaVuSans-38" d="M 2034 2216 
Q 1584 2216 1326 1975 
Q 1069 1734 1069 1313 
Q 1069 891 1326 650 
Q 1584 409 2034 409 
Q 2484 409 2743 651 
Q 3003 894 3003 1313 
Q 3003 1734 2745 1975 
Q 2488 2216 2034 2216 
z
M 1403 2484 
Q 997 2584 770 2862 
Q 544 3141 544 3541 
Q 544 4100 942 4425 
Q 1341 4750 2034 4750 
Q 2731 4750 3128 4425 
Q 3525 4100 3525 3541 
Q 3525 3141 3298 2862 
Q 3072 2584 2669 2484 
Q 3125 2378 3379 2068 
Q 3634 1759 3634 1313 
Q 3634 634 3220 271 
Q 2806 -91 2034 -91 
Q 1263 -91 848 271 
Q 434 634 434 1313 
Q 434 1759 690 2068 
Q 947 2378 1403 2484 
z
M 1172 3481 
Q 1172 3119 1398 2916 
Q 1625 2713 2034 2713 
Q 2441 2713 2670 2916 
Q 2900 3119 2900 3481 
Q 2900 3844 2670 4047 
Q 2441 4250 2034 4250 
Q 1625 4250 1398 4047 
Q 1172 3844 1172 3481 
z
" transform="scale(0.015625)"/>
       </defs>
       <use xlink:href="#DejaVuSans-38"/>
      </g>
     </g>
    </g>
    <g id="text_21">
     <!-- Loss - Min Loss -->
     <g transform="translate(308.473636 190.006016) rotate(-90) scale(0.15 -0.15)">
      <use xlink:href="#DejaVuSans-4c"/>
      <use xlink:href="#DejaVuSans-6f" x="53.962891"/>
      <use xlink:href="#DejaVuSans-73" x="115.144531"/>
      <use xlink:href="#DejaVuSans-73" x="167.244141"/>
      <use xlink:href="#DejaVuSans-20" x="219.34375"/>
      <use xlink:href="#DejaVuSans-2d" x="251.130859"/>
      <use xlink:href="#DejaVuSans-20" x="287.214844"/>
      <use xlink:href="#DejaVuSans-4d" x="319.001953"/>
      <use xlink:href="#DejaVuSans-69" x="405.28125"/>
      <use xlink:href="#DejaVuSans-6e" x="433.064453"/>
      <use xlink:href="#DejaVuSans-20" x="496.443359"/>
      <use xlink:href="#DejaVuSans-4c" x="528.230469"/>
      <use xlink:href="#DejaVuSans-6f" x="582.193359"/>
      <use xlink:href="#DejaVuSans-73" x="643.375"/>
      <use xlink:href="#DejaVuSans-73" x="695.474609"/>
     </g>
    </g>
   </g>
   <g id="line2d_23">
    <path d="M 342.564223 60.394772 
L 344.670749 66.742201 
L 346.777275 72.972551 
L 348.883801 79.084897 
L 350.990328 85.078346 
L 353.096854 90.952039 
L 355.20338 96.705156 
L 357.309907 102.336914 
L 359.416433 107.846569 
L 361.522959 113.233419 
L 363.629485 118.496799 
L 365.736012 123.636084 
L 367.842538 128.650689 
L 369.949064 133.540063 
L 372.05559 138.303696 
L 374.162117 142.941107 
L 376.268643 147.451851 
L 378.375169 151.83551 
L 380.481695 156.091697 
L 382.588222 160.220046 
L 384.694748 164.220214 
L 386.801274 168.091879 
L 388.907801 171.834733 
L 391.014327 175.448481 
L 393.120853 178.932838 
L 395.227379 182.287527 
L 397.333906 185.512275 
L 399.440432 188.606808 
L 401.546958 191.570853 
L 403.653484 194.404132 
L 405.760011 197.106361 
L 407.866537 199.677247 
L 409.973063 202.116489 
L 412.07959 204.423771 
L 414.186116 206.598767 
L 416.292642 208.641136 
L 418.399168 210.550521 
L 420.505695 212.326553 
L 422.612221 213.968844 
L 424.718747 215.476994 
L 426.825273 216.850587 
L 428.9318 218.089191 
L 431.038326 219.192364 
L 433.144852 220.159649 
L 435.251378 220.990578 
L 437.357905 221.684676 
L 439.464431 222.241454 
L 441.570957 222.660421 
L 443.677484 222.941078 
L 445.78401 223.082923 
L 447.890536 223.085455 
L 449.997062 222.948168 
L 452.103589 222.670561 
L 454.210115 222.252135 
L 456.316641 221.692395 
L 458.423167 220.990852 
L 460.529694 220.147026 
L 462.63622 219.160444 
L 464.742746 218.030643 
L 466.849272 216.757172 
L 468.955799 215.339593 
L 471.062325 213.777479 
L 473.168851 212.070419 
L 475.275378 210.218015 
L 477.381904 208.219886 
L 479.48843 206.075665 
L 481.594956 203.785003 
L 483.701483 201.347567 
L 485.808009 198.763043 
L 487.914535 196.031131 
L 490.021061 193.151552 
L 492.127588 190.124044 
L 494.234114 186.948361 
L 496.34064 183.624277 
L 498.447167 180.151584 
L 500.553693 176.530091 
L 502.660219 172.759627 
L 504.766745 168.840036 
L 506.873272 164.771182 
L 508.979798 160.552948 
L 511.086324 156.185234 
L 513.19285 151.667956 
L 515.299377 147.001051 
L 517.405903 142.184473 
L 519.512429 137.218191 
L 521.618955 132.102196 
L 523.725482 126.836494 
L 525.832008 121.42111 
L 527.938534 115.856086 
L 530.045061 110.141482 
L 532.151587 104.277377 
L 534.258113 98.263866 
L 536.364639 92.101062 
L 538.471166 85.789098 
L 540.577692 79.328121 
L 542.684218 72.718301 
L 544.790744 65.959821 
L 546.897271 59.052885 
L 549.003797 51.997714 
L 551.110323 44.794545 
" clip-path="url(#p0f7773eb5e)" style="fill: none; stroke: #189bc4; stroke-width: 2; stroke-linecap: square"/>
   </g>
   <g id="line2d_24">
    <path d="M 446.837273 232 
L 446.837273 35.88 
" clip-path="url(#p0f7773eb5e)" style="fill: none; stroke-dasharray: 7.4,3.2; stroke-dashoffset: 0; stroke: #000000; stroke-width: 2"/>
   </g>
   <g id="line2d_25">
    <path d="M 455.247093 232 
L 455.247093 35.88 
" clip-path="url(#p0f7773eb5e)" style="fill: none; stroke-dasharray: 7.4,3.2; stroke-dashoffset: 0; stroke: #ff0000; stroke-width: 2"/>
   </g>
   <g id="line2d_26">
    <path d="M 332.136918 212.929311 
L 561.537628 212.929311 
" clip-path="url(#p0f7773eb5e)" style="fill: none; stroke: #000000; stroke-opacity: 0.5; stroke-width: 2; stroke-linecap: square"/>
   </g>
   <g id="line2d_27">
    <path d="M 417.120476 232 
L 417.120476 35.88 
" clip-path="url(#p0f7773eb5e)" style="fill: none; stroke-dasharray: 7.4,3.2; stroke-dashoffset: 0; stroke: #000000; stroke-opacity: 0.5; stroke-width: 2"/>
   </g>
   <g id="line2d_28">
    <path d="M 476.55407 232 
L 476.55407 35.88 
" clip-path="url(#p0f7773eb5e)" style="fill: none; stroke-dasharray: 7.4,3.2; stroke-dashoffset: 0; stroke: #000000; stroke-opacity: 0.5; stroke-width: 2"/>
   </g>
   <g id="patch_8">
    <path d="M 332.136918 232 
L 332.136918 35.88 
" style="fill: none; stroke: #000000; stroke-linejoin: miter; stroke-linecap: square"/>
   </g>
   <g id="patch_9">
    <path d="M 561.537628 232 
L 561.537628 35.88 
" style="fill: none; stroke: #000000; stroke-linejoin: miter; stroke-linecap: square"/>
   </g>
   <g id="patch_10">
    <path d="M 332.136918 232 
L 561.537628 232 
" style="fill: none; stroke: #000000; stroke-linejoin: miter; stroke-linecap: square"/>
   </g>
   <g id="patch_11">
    <path d="M 332.136918 35.88 
L 561.537628 35.88 
" style="fill: none; stroke: #000000; stroke-linejoin: miter; stroke-linecap: square"/>
   </g>
   <g id="text_22">
    <!-- Loss vs offset Y -->
    <g transform="translate(377.405085 29.88) scale(0.18 -0.18)">
     <use xlink:href="#DejaVuSans-4c"/>
     <use xlink:href="#DejaVuSans-6f" x="53.962891"/>
     <use xlink:href="#DejaVuSans-73" x="115.144531"/>
     <use xlink:href="#DejaVuSans-73" x="167.244141"/>
     <use xlink:href="#DejaVuSans-20" x="219.34375"/>
     <use xlink:href="#DejaVuSans-76" x="251.130859"/>
     <use xlink:href="#DejaVuSans-73" x="310.310547"/>
     <use xlink:href="#DejaVuSans-20" x="362.410156"/>
     <use xlink:href="#DejaVuSans-6f" x="394.197266"/>
     <use xlink:href="#DejaVuSans-66" x="455.378906"/>
     <use xlink:href="#DejaVuSans-66" x="490.583984"/>
     <use xlink:href="#DejaVuSans-73" x="525.789062"/>
     <use xlink:href="#DejaVuSans-65" x="577.888672"/>
     <use xlink:href="#DejaVuSans-74" x="639.412109"/>
     <use xlink:href="#DejaVuSans-20" x="678.621094"/>
     <use xlink:href="#DejaVuSans-59" x="710.408203"/>
    </g>
   </g>
  </g>
  <g id="axes_3">
   <g id="patch_12">
    <path d="M 613.133835 232 
L 842.534546 232 
L 842.534546 35.88 
L 613.133835 35.88 
z
" style="fill: #ffffff"/>
   </g>
   <g id="matplotlib.axis_5">
    <g id="xtick_7">
     <g id="line2d_29">
      <g>
       <use xlink:href="#mebab0ef3a9" x="674.703516" y="232" style="stroke: #000000; stroke-width: 0.8"/>
      </g>
     </g>
     <g id="text_23">
      <!-- 100.0 -->
      <g transform="translate(653.232422 250.397656) scale(0.15 -0.15)">
       <use xlink:href="#DejaVuSans-31"/>
       <use xlink:href="#DejaVuSans-30" x="63.623047"/>
       <use xlink:href="#DejaVuSans-30" x="127.246094"/>
       <use xlink:href="#DejaVuSans-2e" x="190.869141"/>
       <use xlink:href="#DejaVuSans-30" x="222.65625"/>
      </g>
     </g>
    </g>
    <g id="xtick_8">
     <g id="line2d_30">
      <g>
       <use xlink:href="#mebab0ef3a9" x="749.184266" y="232" style="stroke: #000000; stroke-width: 0.8"/>
      </g>
     </g>
     <g id="text_24">
      <!-- 100.5 -->
      <g transform="translate(727.713172 250.397656) scale(0.15 -0.15)">
       <use xlink:href="#DejaVuSans-31"/>
       <use xlink:href="#DejaVuSans-30" x="63.623047"/>
       <use xlink:href="#DejaVuSans-30" x="127.246094"/>
       <use xlink:href="#DejaVuSans-2e" x="190.869141"/>
       <use xlink:href="#DejaVuSans-35" x="222.65625"/>
      </g>
     </g>
    </g>
    <g id="xtick_9">
     <g id="line2d_31">
      <g>
       <use xlink:href="#mebab0ef3a9" x="823.665016" y="232" style="stroke: #000000; stroke-width: 0.8"/>
      </g>
     </g>
     <g id="text_25">
      <!-- 101.0 -->
      <g transform="translate(802.193923 250.397656) scale(0.15 -0.15)">
       <use xlink:href="#DejaVuSans-31"/>
       <use xlink:href="#DejaVuSans-30" x="63.623047"/>
       <use xlink:href="#DejaVuSans-31" x="127.246094"/>
       <use xlink:href="#DejaVuSans-2e" x="190.869141"/>
       <use xlink:href="#DejaVuSans-30" x="222.65625"/>
      </g>
     </g>
    </g>
    <g id="text_26">
     <!-- Z Value (kHz) -->
     <g transform="translate(677.560753 268.914844) scale(0.15 -0.15)">
      <defs>
       <path id="DejaVuSans-5a" d="M 359 4666 
L 4025 4666 
L 4025 4184 
L 1075 531 
L 4097 531 
L 4097 0 
L 288 0 
L 288 481 
L 3238 4134 
L 359 4134 
L 359 4666 
z
" transform="scale(0.015625)"/>
      </defs>
      <use xlink:href="#DejaVuSans-5a"/>
      <use xlink:href="#DejaVuSans-20" x="68.505859"/>
      <use xlink:href="#DejaVuSans-56" x="100.292969"/>
      <use xlink:href="#DejaVuSans-61" x="160.951172"/>
      <use xlink:href="#DejaVuSans-6c" x="222.230469"/>
      <use xlink:href="#DejaVuSans-75" x="250.013672"/>
      <use xlink:href="#DejaVuSans-65" x="313.392578"/>
      <use xlink:href="#DejaVuSans-20" x="374.916016"/>
      <use xlink:href="#DejaVuSans-28" x="406.703125"/>
      <use xlink:href="#DejaVuSans-6b" x="445.716797"/>
      <use xlink:href="#DejaVuSans-48" x="503.626953"/>
      <use xlink:href="#DejaVuSans-7a" x="578.822266"/>
      <use xlink:href="#DejaVuSans-29" x="631.3125"/>
     </g>
    </g>
   </g>
   <g id="matplotlib.axis_6">
    <g id="ytick_11">
     <g id="line2d_32">
      <g>
       <use xlink:href="#m9068f2950c" x="613.133835" y="223.085455" style="stroke: #000000; stroke-width: 0.8"/>
      </g>
     </g>
     <g id="text_27">
      <!-- 0 -->
      <g transform="translate(596.590085 228.784283) scale(0.15 -0.15)">
       <use xlink:href="#DejaVuSans-30"/>
      </g>
     </g>
    </g>
    <g id="ytick_12">
     <g id="line2d_33">
      <g>
       <use xlink:href="#m9068f2950c" x="613.133835" y="175.234894" style="stroke: #000000; stroke-width: 0.8"/>
      </g>
     </g>
     <g id="text_28">
      <!-- 1 -->
      <g transform="translate(596.590085 180.933722) scale(0.15 -0.15)">
       <use xlink:href="#DejaVuSans-31"/>
      </g>
     </g>
    </g>
    <g id="ytick_13">
     <g id="line2d_34">
      <g>
       <use xlink:href="#m9068f2950c" x="613.133835" y="127.384332" style="stroke: #000000; stroke-width: 0.8"/>
      </g>
     </g>
     <g id="text_29">
      <!-- 2 -->
      <g transform="translate(596.590085 133.083161) scale(0.15 -0.15)">
       <use xlink:href="#DejaVuSans-32"/>
      </g>
     </g>
    </g>
    <g id="ytick_14">
     <g id="line2d_35">
      <g>
       <use xlink:href="#m9068f2950c" x="613.133835" y="79.533771" style="stroke: #000000; stroke-width: 0.8"/>
      </g>
     </g>
     <g id="text_30">
      <!-- 3 -->
      <g transform="translate(596.590085 85.2326) scale(0.15 -0.15)">
       <use xlink:href="#DejaVuSans-33"/>
      </g>
     </g>
    </g>
    <g id="text_31">
     <!-- Loss - Min Loss -->
     <g transform="translate(589.470554 190.006016) rotate(-90) scale(0.15 -0.15)">
      <use xlink:href="#DejaVuSans-4c"/>
      <use xlink:href="#DejaVuSans-6f" x="53.962891"/>
      <use xlink:href="#DejaVuSans-73" x="115.144531"/>
      <use xlink:href="#DejaVuSans-73" x="167.244141"/>
      <use xlink:href="#DejaVuSans-20" x="219.34375"/>
      <use xlink:href="#DejaVuSans-2d" x="251.130859"/>
      <use xlink:href="#DejaVuSans-20" x="287.214844"/>
      <use xlink:href="#DejaVuSans-4d" x="319.001953"/>
      <use xlink:href="#DejaVuSans-69" x="405.28125"/>
      <use xlink:href="#DejaVuSans-6e" x="433.064453"/>
      <use xlink:href="#DejaVuSans-20" x="496.443359"/>
      <use xlink:href="#DejaVuSans-4c" x="528.230469"/>
      <use xlink:href="#DejaVuSans-6f" x="582.193359"/>
      <use xlink:href="#DejaVuSans-73" x="643.375"/>
      <use xlink:href="#DejaVuSans-73" x="695.474609"/>
     </g>
    </g>
   </g>
   <g id="line2d_36">
    <path d="M 623.56114 44.794545 
L 625.667667 52.080574 
L 627.774193 59.210389 
L 629.880719 66.184098 
L 631.987245 73.001828 
L 634.093772 79.663721 
L 636.200298 86.169938 
L 638.306824 92.520655 
L 640.41335 98.716065 
L 642.519877 104.756376 
L 644.626403 110.641813 
L 646.732929 116.372617 
L 648.839455 121.949042 
L 650.945982 127.371359 
L 653.052508 132.639853 
L 655.159034 137.754822 
L 657.265561 142.716581 
L 659.372087 147.525454 
L 661.478613 152.181782 
L 663.585139 156.685914 
L 665.691666 161.038215 
L 667.798192 165.239059 
L 669.904718 169.28883 
L 672.011244 173.187924 
L 674.117771 176.936745 
L 676.224297 180.535704 
L 678.330823 183.985224 
L 680.43735 187.285731 
L 682.543876 190.437659 
L 684.650402 193.441446 
L 686.756928 196.297535 
L 688.863455 199.006373 
L 690.969981 201.568407 
L 693.076507 203.984088 
L 695.183033 206.253866 
L 697.28956 208.37819 
L 699.396086 210.357506 
L 701.502612 212.192258 
L 703.609138 213.882886 
L 705.715665 215.429823 
L 707.822191 216.833498 
L 709.928717 218.094329 
L 712.035244 219.212727 
L 714.14177 220.189093 
L 716.248296 221.023814 
L 718.354822 221.717269 
L 720.461349 222.269819 
L 722.567875 222.681814 
L 724.674401 222.953587 
L 726.780927 223.085455 
L 728.887454 223.077717 
L 730.99398 222.930654 
L 733.100506 222.644531 
L 735.207032 222.219589 
L 737.313559 221.656054 
L 739.420085 220.954126 
L 741.526611 220.113989 
L 743.633138 219.135805 
L 745.739664 218.019711 
L 747.84619 216.765829 
L 749.952716 215.374254 
L 752.059243 213.845064 
L 754.165769 212.178313 
L 756.272295 210.374036 
L 758.378821 208.432246 
L 760.485348 206.352938 
L 762.591874 204.136085 
L 764.6984 201.781645 
L 766.804927 199.289554 
L 768.911453 196.659735 
L 771.017979 193.892092 
L 773.124505 190.986512 
L 775.231032 187.942872 
L 777.337558 184.761032 
L 779.444084 181.44084 
L 781.55061 177.982132 
L 783.657137 174.384734 
L 785.763663 170.648463 
L 787.870189 166.773126 
L 789.976715 162.758524 
L 792.083242 158.604448 
L 794.189768 154.310688 
L 796.296294 149.877026 
L 798.402821 145.30324 
L 800.509347 140.589107 
L 802.615873 135.734399 
L 804.722399 130.73889 
L 806.828926 125.602351 
L 808.935452 120.324553 
L 811.041978 114.905267 
L 813.148504 109.344266 
L 815.255031 103.641326 
L 817.361557 97.796221 
L 819.468083 91.808732 
L 821.57461 85.678639 
L 823.681136 79.405727 
L 825.787662 72.989783 
L 827.894188 66.4306 
L 830.000715 59.72797 
L 832.107241 52.881694 
" clip-path="url(#p08baeecb1e)" style="fill: none; stroke: #189bc4; stroke-width: 2; stroke-linecap: square"/>
   </g>
   <g id="line2d_37">
    <path d="M 727.834191 232 
L 727.834191 35.88 
" clip-path="url(#p08baeecb1e)" style="fill: none; stroke-dasharray: 7.4,3.2; stroke-dashoffset: 0; stroke: #000000; stroke-width: 2"/>
   </g>
   <g id="line2d_38">
    <path d="M 674.703516 232 
L 674.703516 35.88 
" clip-path="url(#p08baeecb1e)" style="fill: none; stroke-dasharray: 7.4,3.2; stroke-dashoffset: 0; stroke: #ff0000; stroke-width: 2"/>
   </g>
   <g id="line2d_39">
    <path d="M 613.133835 199.160174 
L 842.534546 199.160174 
" clip-path="url(#p08baeecb1e)" style="fill: none; stroke: #000000; stroke-opacity: 0.5; stroke-width: 2; stroke-linecap: square"/>
   </g>
   <g id="line2d_40">
    <path d="M 679.46268 232 
L 679.46268 35.88 
" clip-path="url(#p08baeecb1e)" style="fill: none; stroke-dasharray: 7.4,3.2; stroke-dashoffset: 0; stroke: #000000; stroke-opacity: 0.5; stroke-width: 2"/>
   </g>
   <g id="line2d_41">
    <path d="M 776.205702 232 
L 776.205702 35.88 
" clip-path="url(#p08baeecb1e)" style="fill: none; stroke-dasharray: 7.4,3.2; stroke-dashoffset: 0; stroke: #000000; stroke-opacity: 0.5; stroke-width: 2"/>
   </g>
   <g id="patch_13">
    <path d="M 613.133835 232 
L 613.133835 35.88 
" style="fill: none; stroke: #000000; stroke-linejoin: miter; stroke-linecap: square"/>
   </g>
   <g id="patch_14">
    <path d="M 842.534546 232 
L 842.534546 35.88 
" style="fill: none; stroke: #000000; stroke-linejoin: miter; stroke-linecap: square"/>
   </g>
   <g id="patch_15">
    <path d="M 613.133835 232 
L 842.534546 232 
" style="fill: none; stroke: #000000; stroke-linejoin: miter; stroke-linecap: square"/>
   </g>
   <g id="patch_16">
    <path d="M 613.133835 35.88 
L 842.534546 35.88 
" style="fill: none; stroke: #000000; stroke-linejoin: miter; stroke-linecap: square"/>
   </g>
   <g id="text_32">
    <!-- Loss vs offset Z -->
    <g transform="translate(657.734034 29.88) scale(0.18 -0.18)">
     <use xlink:href="#DejaVuSans-4c"/>
     <use xlink:href="#DejaVuSans-6f" x="53.962891"/>
     <use xlink:href="#DejaVuSans-73" x="115.144531"/>
     <use xlink:href="#DejaVuSans-73" x="167.244141"/>
     <use xlink:href="#DejaVuSans-20" x="219.34375"/>
     <use xlink:href="#DejaVuSans-76" x="251.130859"/>
     <use xlink:href="#DejaVuSans-73" x="310.310547"/>
     <use xlink:href="#DejaVuSans-20" x="362.410156"/>
     <use xlink:href="#DejaVuSans-6f" x="394.197266"/>
     <use xlink:href="#DejaVuSans-66" x="455.378906"/>
     <use xlink:href="#DejaVuSans-66" x="490.583984"/>
     <use xlink:href="#DejaVuSans-73" x="525.789062"/>
     <use xlink:href="#DejaVuSans-65" x="577.888672"/>
     <use xlink:href="#DejaVuSans-74" x="639.412109"/>
     <use xlink:href="#DejaVuSans-20" x="678.621094"/>
     <use xlink:href="#DejaVuSans-5a" x="710.408203"/>
    </g>
   </g>
  </g>
 </g>
 <defs>
  <clipPath id="pc0679be454">
   <rect x="51.14" y="35.88" width="229.400711" height="196.12"/>
  </clipPath>
  <clipPath id="p0f7773eb5e">
   <rect x="332.136918" y="35.88" width="229.400711" height="196.12"/>
  </clipPath>
  <clipPath id="p08baeecb1e">
   <rect x="613.133835" y="35.88" width="229.400711" height="196.12"/>
  </clipPath>
 </defs>
</svg>
